<svg width="86" height="103" viewBox="0 0 86 103" fill="none" xmlns="http://www.w3.org/2000/svg">
<path d="M52.378 1.80078H33.6212C28.6399 1.80078 24.6016 5.84596 24.6016 10.8357V18.618H29.9314V10.8357C29.9314 8.80283 31.5918 7.13959 33.6212 7.13959H52.378C54.4074 7.13959 56.0678 8.80283 56.0678 10.8357V18.618H61.3976V10.8357C61.3976 5.84596 57.3593 1.80078 52.378 1.80078Z" fill="white" stroke="#71B8CA" stroke-width="2.06212" stroke-miterlimit="10" stroke-linecap="round" stroke-linejoin="round"/>
<path d="M15.2133 92.1291H10.0065C5.90667 92.1291 2.48331 88.9463 2.21682 84.8601C1.47885 73.6075 2.6678 64.819 5.12771 58.0223C6.46015 54.3467 11.6875 54.3467 13.0199 58.0223C15.9923 66.2153 17.0992 77.3036 15.2133 92.1291Z" fill="white" stroke="#71B8CA" stroke-width="2.06212" stroke-miterlimit="10" stroke-linecap="round" stroke-linejoin="round"/>
<path d="M70.7863 90.7121H75.9931C80.0929 90.7121 83.5163 87.5293 83.7828 83.4431C84.5207 72.1905 83.3318 63.402 80.8719 56.6053C79.5394 52.9297 74.3121 52.9297 72.9797 56.6053C70.0073 64.7983 68.9208 75.8866 70.7863 90.7121Z" fill="white" stroke="#71B8CA" stroke-width="2.06212" stroke-miterlimit="10" stroke-linecap="round" stroke-linejoin="round"/>
<path d="M20.6254 98.9465C17.161 98.9465 14.3116 96.3387 13.9837 92.8685C12.4872 76.6673 12.4872 60.2402 13.9837 44.0595C14.3116 40.5892 17.161 37.9814 20.6254 37.9814H65.3957C68.86 37.9814 71.7094 40.5892 72.0374 44.0595C73.5339 60.2607 73.5339 76.6878 72.0374 92.8685C71.7094 96.3387 68.86 98.9465 65.3957 98.9465H20.6254Z" fill="white" stroke="#71B8CA" stroke-width="0.82485" stroke-linecap="round" stroke-linejoin="round" stroke-dasharray="0.83 0.83"/>
<path d="M65.3952 101.8H20.6249C15.7051 101.8 11.6053 98.0428 11.1543 93.1352C9.63737 76.7286 9.63737 60.1988 11.1543 43.7923C11.6053 38.8847 15.7051 35.127 20.6249 35.127H65.3952C70.315 35.127 74.4149 38.8847 74.8658 43.7923C76.3828 60.1988 76.3828 76.7286 74.8658 93.1352C74.3944 98.0428 70.315 101.8 65.3952 101.8Z" fill="white" stroke="#71B8CA" stroke-width="0.206212" stroke-miterlimit="10"/>
<path d="M65.3952 101.8H20.6249C15.7051 101.8 11.6053 98.0428 11.1543 93.1352C9.63737 76.7286 9.63737 60.1988 11.1543 43.7923C11.6053 38.8847 15.7051 35.127 20.6249 35.127H65.3952C70.315 35.127 74.4149 38.8847 74.8658 43.7923C76.3828 60.1988 76.3828 76.7286 74.8658 93.1352C74.3944 98.0428 70.315 101.8 65.3952 101.8Z" fill="white" stroke="#71B8CA" stroke-width="2.06212" stroke-miterlimit="10" stroke-linecap="round" stroke-linejoin="round"/>
<path opacity="0.41" d="M68.8443 64.8604L68.8441 64.8604C51.6212 65.7435 34.3779 65.7435 17.155 64.8604C11.9164 64.597 7.78278 60.2496 6.83421 54.5681C7.01131 61.1517 11.4269 66.4115 17.1451 66.7078L68.8443 64.8604ZM68.8443 64.8604C74.0582 64.5796 78.1781 60.2864 79.1215 54.6461C78.911 61.175 74.508 66.4128 68.813 66.7078L68.8443 64.8604Z" fill="white" stroke="#71B8CA" stroke-width="0.206212"/>
<path opacity="0.41" d="M49.6933 41.7389C45.204 41.8005 40.7352 41.78 36.2458 41.7389C30.752 41.6568 26.3037 37.4268 26.3037 32.4371C26.3037 31.1229 26.3037 29.8087 26.3037 28.474C26.3037 26.934 27.6567 25.6609 29.3376 25.6198C38.4392 25.4145 47.5614 25.4145 56.6835 25.6198C58.3645 25.6609 59.7174 26.9135 59.7174 28.474V32.3549C59.7174 37.3652 55.2076 41.6568 49.6933 41.7389Z" fill="white" stroke="#71B8CA" stroke-width="2.06212" stroke-miterlimit="10" stroke-linecap="round" stroke-linejoin="round"/>
<path d="M68.8388 66.6065C51.6195 67.4894 34.3796 67.4894 17.1603 66.6065C11.2155 66.2984 6.68521 60.6722 6.74671 53.8139C6.82871 44.3888 7.1772 35.1486 7.79217 26.0726C8.22266 19.6866 12.8965 14.5941 18.5543 14.3067C34.8511 13.5058 51.1685 13.5058 67.4653 14.3067C73.1231 14.5736 77.7969 19.6866 78.2274 26.0726C78.8424 35.1486 79.1909 44.3683 79.2729 53.8139C79.3139 60.6722 74.7836 66.2984 68.8388 66.6065Z" fill="white" stroke="#71B8CA" stroke-width="2.06212" stroke-miterlimit="10" stroke-linecap="round" stroke-linejoin="round"/>
<path d="M43.0098 64.4084C34.4821 64.4084 25.8315 64.1825 17.3243 63.7513C12.958 63.5254 9.57558 59.1723 9.61658 53.8335C9.69858 44.5521 10.0471 35.2708 10.662 26.2564C10.99 21.3488 14.5364 17.3653 18.7182 17.1599C26.7744 16.7698 34.9741 16.5645 43.0303 16.5645C51.107 16.5645 59.2862 16.7698 67.3423 17.1599C71.5242 17.3653 75.0705 21.3694 75.3985 26.2564C76.0135 35.2708 76.362 44.5521 76.444 53.8335C76.485 59.1723 73.1026 63.5254 68.7363 63.7513C60.1676 64.1825 51.5375 64.4084 43.0098 64.4084Z" fill="white" stroke="#71B8CA" stroke-width="0.82485" stroke-linecap="round" stroke-linejoin="round" stroke-dasharray="0.83 0.83"/>
<path d="M49.6933 40.0973C45.204 40.1589 40.7352 40.1384 36.2458 40.0973C30.752 40.0152 26.3037 35.7852 26.3037 30.7955C26.3037 29.4813 26.3037 28.1671 26.3037 26.8324C26.3037 25.2924 27.6567 24.0193 29.3376 23.9782C38.4392 23.7729 47.5614 23.7729 56.6835 23.9782C58.3645 24.0193 59.7174 25.2719 59.7174 26.8324V30.7133C59.7174 35.7236 55.2076 40.0152 49.6933 40.0973Z" fill="white" stroke="#71B8CA" stroke-width="2.06212" stroke-miterlimit="10" stroke-linecap="round" stroke-linejoin="round"/>
<path d="M49.6933 40.0973C45.204 40.1589 40.7352 40.1384 36.2458 40.0973C30.752 40.0152 26.3037 35.7852 26.3037 30.7955C26.3037 29.4813 26.3037 28.1671 26.3037 26.8324C26.3037 25.2924 27.6567 24.0193 29.3376 23.9782C38.4392 23.7729 47.5614 23.7729 56.6835 23.9782C58.3645 24.0193 59.7174 25.2719 59.7174 26.8324V30.7133C59.7174 35.7236 55.2076 40.0152 49.6933 40.0973Z" fill="white" stroke="#71B8CA" stroke-width="2.06212" stroke-miterlimit="10" stroke-linecap="round" stroke-linejoin="round"/>
<g opacity="0.41">
<path opacity="0.41" d="M16.6161 58.7947L16.6163 58.795L19.6082 64.3785C19.6084 64.3787 19.6085 64.379 19.6087 64.3793C19.7754 64.6755 20.0896 64.8597 20.4203 64.8597H30.0754C30.4061 64.8597 30.7202 64.6755 30.8869 64.3794C30.8871 64.3791 30.8873 64.3788 30.8875 64.3785L33.8587 58.7953L33.859 58.7947C35.8443 55.1218 35.0772 50.8396 31.8908 47.8512L31.8907 47.8511L27.5865 43.8065C27.5864 43.8064 27.5863 43.8063 27.5862 43.8062C26.313 42.6308 24.1607 42.612 22.8893 43.806L22.8891 43.8061L18.5844 47.8306L16.6161 58.7947ZM16.6161 58.7947C14.6308 55.1218 15.398 50.8192 18.5843 47.8307L16.6161 58.7947ZM20.9445 62.9583L20.9736 63.0125H21.0353H29.4604H29.522L29.5512 62.9583L32.2568 57.928C33.8394 55.0287 33.1903 51.6107 30.6379 49.2202L26.3332 45.1752L26.3324 45.1745C26.0531 44.9171 25.6471 44.788 25.2485 44.7853C24.8502 44.7826 24.4426 44.9061 24.1622 45.1755C24.162 45.1756 24.1618 45.1758 24.1617 45.176L19.8579 49.1996L19.8578 49.1997C17.3054 51.5901 16.6564 55.0286 18.2387 57.9278C18.2388 57.9278 18.2388 57.9279 18.2389 57.928L20.9445 62.9583Z" fill="white" stroke="#71B8CA" stroke-width="0.206212"/>
</g>
<g opacity="0.41">
<path opacity="0.41" d="M23.3312 54.5929H23.2281V54.696V86.7699C23.2281 87.8328 24.094 88.7005 25.1556 88.7005C26.2172 88.7005 27.0831 87.8328 27.0831 86.7699V54.696V54.5929H26.98H23.3312ZM25.1556 90.5477C23.0808 90.5477 21.3844 88.8486 21.3844 86.7699V53.6693C21.3844 53.1511 21.7893 52.7457 22.3062 52.7457H28.005C28.5219 52.7457 28.9268 53.1511 28.9268 53.6693V86.7699C28.9268 88.8486 27.2304 90.5477 25.1556 90.5477Z" fill="white" stroke="#71B8CA" stroke-width="0.206212"/>
</g>
<path d="M20.4209 62.4986H30.076L33.0689 56.9134C34.8523 53.6486 34.1349 49.7882 31.265 47.0982L26.9601 43.0531C26.0582 42.1906 24.4387 42.1906 23.5368 43.0531L19.2319 47.0777C16.362 49.7676 15.6651 53.6486 17.428 56.934L20.4209 62.4986Z" fill="white" stroke="#71B8CA" stroke-width="2.06212" stroke-miterlimit="10" stroke-linecap="round" stroke-linejoin="round"/>
<path d="M21.958 60.4447H21.6504L21.5068 60.1777" fill="white"/>
<path d="M21.958 60.4447H21.6504L21.5068 60.1777" stroke="#71B8CA" stroke-width="0.618637" stroke-linecap="round" stroke-linejoin="round"/>
<path d="M20.8299 58.905L19.2515 55.9482C17.919 53.5046 18.4725 50.6094 20.6454 48.5765L24.9502 44.5519C24.9912 44.5108 25.0937 44.4697 25.2577 44.4697C25.4217 44.4697 25.5447 44.5313 25.5857 44.5519L29.8906 48.597C32.084 50.6504 32.617 53.4636 31.2845 55.9482L29.3576 59.5416" fill="white"/>
<path d="M20.8299 58.905L19.2515 55.9482C17.919 53.5046 18.4725 50.6094 20.6454 48.5765L24.9502 44.5519C24.9912 44.5108 25.0937 44.4697 25.2577 44.4697C25.4217 44.4697 25.5447 44.5313 25.5857 44.5519L29.8906 48.597C32.084 50.6504 32.617 53.4636 31.2845 55.9482L29.3576 59.5416" stroke="#71B8CA" stroke-width="0.618637" stroke-linecap="round" stroke-linejoin="round" stroke-dasharray="0.62 0.62"/>
<path d="M28.9882 60.1777L28.8447 60.4447H28.5371" fill="white"/>
<path d="M28.9882 60.1777L28.8447 60.4447H28.5371" stroke="#71B8CA" stroke-width="0.618637" stroke-linecap="round" stroke-linejoin="round"/>
<path d="M27.2871 60.4443H22.5928" stroke="#71B8CA" stroke-width="0.618637" stroke-linecap="round" stroke-linejoin="round" stroke-dasharray="0.54 0.54"/>
<path d="M25.1765 88.3513C23.5981 88.3513 22.3271 87.0782 22.3271 85.4971V52.3965H28.0259V85.4971C28.0464 87.0782 26.755 88.3513 25.1765 88.3513Z" fill="white" stroke="#71B8CA" stroke-width="1.6497" stroke-miterlimit="10" stroke-linecap="round" stroke-linejoin="round"/>
<path d="M22.3271 73.6685V69.4591H28.0259V73.6685H30.4038V68.9868C30.4038 67.9395 29.5634 67.0977 28.5179 67.0977H21.8557C20.8102 67.0977 19.9697 67.9395 19.9697 68.9868V73.6685H22.3271Z" fill="white" stroke="#71B8CA" stroke-width="1.6497" stroke-miterlimit="10" stroke-linecap="round" stroke-linejoin="round"/>
<path d="M26.1199 54.6543L24.2334 56.5434" stroke="#71B8CA" stroke-width="0.82485" stroke-miterlimit="10" stroke-linecap="round" stroke-linejoin="round"/>
<path d="M26.1199 56.5434L24.2334 54.6543" stroke="#71B8CA" stroke-width="0.82485" stroke-miterlimit="10" stroke-linecap="round" stroke-linejoin="round"/>
<path d="M25.1561 74.0795C25.6771 74.0795 26.0994 73.6567 26.0994 73.135C26.0994 72.6133 25.6771 72.1904 25.1561 72.1904C24.6352 72.1904 24.2129 72.6133 24.2129 73.135C24.2129 73.6567 24.6352 74.0795 25.1561 74.0795Z" fill="white" stroke="#71B8CA" stroke-width="0.82485" stroke-miterlimit="10" stroke-linecap="round" stroke-linejoin="round"/>
<path d="M25.1561 77.7758C25.6771 77.7758 26.0994 77.353 26.0994 76.8313C26.0994 76.3096 25.6771 75.8867 25.1561 75.8867C24.6352 75.8867 24.2129 76.3096 24.2129 76.8313C24.2129 77.353 24.6352 77.7758 25.1561 77.7758Z" fill="white" stroke="#71B8CA" stroke-width="0.82485" stroke-miterlimit="10" stroke-linecap="round" stroke-linejoin="round"/>
<path d="M25.1561 81.9448C25.6771 81.9448 26.0994 81.5219 26.0994 81.0002C26.0994 80.4786 25.6771 80.0557 25.1561 80.0557C24.6352 80.0557 24.2129 80.4786 24.2129 81.0002C24.2129 81.5219 24.6352 81.9448 25.1561 81.9448Z" fill="white" stroke="#71B8CA" stroke-width="0.82485" stroke-miterlimit="10" stroke-linecap="round" stroke-linejoin="round"/>
<path d="M25.1562 73.6696C24.7666 73.6696 24.459 73.3616 24.459 72.9714V66.9345C24.459 66.5443 24.7666 66.2363 25.1562 66.2363C25.5458 66.2363 25.8533 66.5443 25.8533 66.9345V72.9714C25.8533 73.3616 25.5458 73.6696 25.1562 73.6696Z" fill="white" stroke="#71B8CA" stroke-width="0.82485" stroke-miterlimit="10" stroke-linecap="round" stroke-linejoin="round"/>
<g opacity="0.41">
<path opacity="0.41" d="M52.121 58.9998L52.1212 59.0001L55.1131 64.5835C55.1133 64.5838 55.1134 64.5841 55.1136 64.5844C55.2803 64.8805 55.5945 65.0648 55.9252 65.0648H65.5803C65.911 65.0648 66.2251 64.8806 66.3918 64.5845C66.392 64.5842 66.3922 64.5839 66.3924 64.5835L69.3636 59.0004L69.3639 58.9998C71.3492 55.3269 70.5821 51.0447 67.3957 48.0562L67.3956 48.0562L63.0914 44.0116C63.0913 44.0115 63.0912 44.0114 63.0911 44.0113C61.8179 42.8359 59.6656 42.817 58.3942 44.011L58.394 44.0112L54.0893 48.0357L52.121 58.9998ZM52.121 58.9998C50.1357 55.3269 50.9029 51.0242 54.0892 48.0358L52.121 58.9998ZM56.4785 63.2176L56.4493 63.1633L53.7437 58.1331C53.7437 58.133 53.7436 58.1329 53.7436 58.1329C52.1613 55.2337 52.8103 51.7952 55.3627 49.4048L55.3628 49.4047L59.6666 45.3811C59.6667 45.3809 59.6669 45.3807 59.6671 45.3805C59.9475 45.1112 60.3551 44.9877 60.7534 44.9904C61.152 44.9931 61.558 45.1222 61.8373 45.3796L61.838 45.3802L66.1427 49.4253L56.4785 63.2176ZM56.4785 63.2176H56.5401M56.4785 63.2176H56.5401M56.5401 63.2176H64.9653H65.0269M56.5401 63.2176H65.0269M65.0269 63.2176L65.0561 63.1633M65.0269 63.2176L65.0561 63.1633M65.0561 63.1633L67.7617 58.1331M65.0561 63.1633L67.7617 58.1331M67.7617 58.1331C67.7618 58.133 67.7618 58.1329 67.7619 58.1328M67.7617 58.1331L67.7619 58.1328M67.7619 58.1328C69.3442 55.2336 68.6951 51.8157 66.1429 49.4254L67.7619 58.1328Z" fill="white" stroke="#71B8CA" stroke-width="0.206212"/>
</g>
<path d="M55.9258 62.4986H65.5809L68.5738 56.9134C70.3572 53.6486 69.6397 49.7882 66.7699 47.0982L62.465 43.0531C61.5631 42.1906 59.9436 42.1906 59.0417 43.0531L54.7368 47.0777C51.8669 49.7676 51.17 53.6486 52.9329 56.934L55.9258 62.4986Z" fill="white" stroke="#71B8CA" stroke-width="2.06212" stroke-miterlimit="10" stroke-linecap="round" stroke-linejoin="round"/>
<path d="M57.4628 60.4447H57.1553L57.0117 60.1777" fill="white"/>
<path d="M57.4628 60.4447H57.1553L57.0117 60.1777" stroke="#71B8CA" stroke-width="0.618637" stroke-linecap="round" stroke-linejoin="round"/>
<path d="M56.3348 58.905L54.7563 55.9482C53.4239 53.5046 53.9774 50.6094 56.1503 48.5765L60.4551 44.5519C60.4961 44.5108 60.5986 44.4697 60.7626 44.4697C60.9266 44.4697 61.0496 44.5313 61.0906 44.5519L65.3954 48.597C67.5889 50.6504 68.1218 53.4636 66.7894 55.9482L64.8625 59.5416" fill="white"/>
<path d="M56.3348 58.905L54.7563 55.9482C53.4239 53.5046 53.9774 50.6094 56.1503 48.5765L60.4551 44.5519C60.4961 44.5108 60.5986 44.4697 60.7626 44.4697C60.9266 44.4697 61.0496 44.5313 61.0906 44.5519L65.3954 48.597C67.5889 50.6504 68.1218 53.4636 66.7894 55.9482L64.8625 59.5416" stroke="#71B8CA" stroke-width="0.618637" stroke-linecap="round" stroke-linejoin="round" stroke-dasharray="0.62 0.62"/>
<path d="M64.4941 60.1777L64.3505 60.4447H64.043" fill="white"/>
<path d="M64.4941 60.1777L64.3505 60.4447H64.043" stroke="#71B8CA" stroke-width="0.618637" stroke-linecap="round" stroke-linejoin="round"/>
<path d="M62.792 60.4443H58.0771" stroke="#71B8CA" stroke-width="0.618637" stroke-linecap="round" stroke-linejoin="round" stroke-dasharray="0.54 0.54"/>
<g opacity="0.41">
<path opacity="0.41" d="M58.8566 54.5528H58.7535V54.6559V86.7298C58.7535 87.7928 59.6194 88.6605 60.681 88.6605C61.7426 88.6605 62.6085 87.7928 62.6085 86.7298V54.6559V54.5528H62.5054H58.8566ZM60.681 90.5076C58.6062 90.5076 56.9097 88.8086 56.9097 86.7298V53.6292C56.9097 53.1111 57.3147 52.7056 57.8316 52.7056H63.5304C64.0473 52.7056 64.4522 53.1111 64.4522 53.6292V86.7298C64.4522 88.8086 62.7558 90.5076 60.681 90.5076Z" fill="white" stroke="#71B8CA" stroke-width="0.206212"/>
</g>
<path d="M60.6814 88.3513C59.103 88.3513 57.832 87.0782 57.832 85.4971V52.3965H63.5308V85.4971C63.5308 87.0782 62.2599 88.3513 60.6814 88.3513Z" fill="white" stroke="#71B8CA" stroke-width="1.6497" stroke-miterlimit="10" stroke-linecap="round" stroke-linejoin="round"/>
<path d="M57.832 73.6685V69.4591H63.5308V73.6685H65.9087V68.9868C65.9087 67.9395 65.0682 67.0977 64.0228 67.0977H57.3605C56.3151 67.0977 55.4746 67.9395 55.4746 68.9868V73.6685H57.832Z" fill="white" stroke="#71B8CA" stroke-width="1.6497" stroke-miterlimit="10" stroke-linecap="round" stroke-linejoin="round"/>
<path d="M61.6247 54.6543L59.7383 56.5434" stroke="#71B8CA" stroke-width="0.82485" stroke-miterlimit="10" stroke-linecap="round" stroke-linejoin="round"/>
<path d="M61.6247 56.5434L59.7383 54.6543" stroke="#71B8CA" stroke-width="0.82485" stroke-miterlimit="10" stroke-linecap="round" stroke-linejoin="round"/>
<path d="M60.661 74.0795C61.182 74.0795 61.6043 73.6567 61.6043 73.135C61.6043 72.6133 61.182 72.1904 60.661 72.1904C60.1401 72.1904 59.7178 72.6133 59.7178 73.135C59.7178 73.6567 60.1401 74.0795 60.661 74.0795Z" fill="white" stroke="#71B8CA" stroke-width="0.82485" stroke-miterlimit="10" stroke-linecap="round" stroke-linejoin="round"/>
<path d="M60.661 77.7758C61.182 77.7758 61.6043 77.353 61.6043 76.8313C61.6043 76.3096 61.182 75.8867 60.661 75.8867C60.1401 75.8867 59.7178 76.3096 59.7178 76.8313C59.7178 77.353 60.1401 77.7758 60.661 77.7758Z" fill="white" stroke="#71B8CA" stroke-width="0.82485" stroke-miterlimit="10" stroke-linecap="round" stroke-linejoin="round"/>
<path d="M60.661 81.9448C61.182 81.9448 61.6043 81.5219 61.6043 81.0002C61.6043 80.4786 61.182 80.0557 60.661 80.0557C60.1401 80.0557 59.7178 80.4786 59.7178 81.0002C59.7178 81.5219 60.1401 81.9448 60.661 81.9448Z" fill="white" stroke="#71B8CA" stroke-width="0.82485" stroke-miterlimit="10" stroke-linecap="round" stroke-linejoin="round"/>
<path d="M60.661 73.6696C60.2714 73.6696 59.9639 73.3616 59.9639 72.9714V66.9345C59.9639 66.5443 60.2714 66.2363 60.661 66.2363C61.0506 66.2363 61.3582 66.5443 61.3582 66.9345V72.9714C61.3582 73.3616 61.0506 73.6696 60.661 73.6696Z" fill="white" stroke="#71B8CA" stroke-width="0.82485" stroke-miterlimit="10" stroke-linecap="round" stroke-linejoin="round"/>
<path d="M58.282 33.8751C58.9995 34.7786 60.3934 34.7786 61.1109 33.8751C61.5414 33.3412 61.6234 32.602 61.3364 31.9654L59.6965 28.4131L58.0565 31.9654C57.7695 32.5815 57.872 33.3207 58.282 33.8751Z" fill="white" stroke="#71B8CA" stroke-width="1.23727" stroke-miterlimit="10" stroke-linecap="round" stroke-linejoin="round"/>
<path d="M26.2832 29.5215H59.2459" stroke="#71B8CA" stroke-width="1.85591" stroke-miterlimit="10" stroke-linejoin="round" stroke-dasharray="1.03 1.03"/>
<path d="M43.0099 85.0251C46.712 85.0251 49.7131 83.1773 49.7131 80.8978C49.7131 78.6184 46.712 76.7705 43.0099 76.7705C39.3078 76.7705 36.3066 78.6184 36.3066 80.8978C36.3066 83.1773 39.3078 85.0251 43.0099 85.0251Z" fill="white" stroke="#71B8CA" stroke-width="1.23727" stroke-miterlimit="10" stroke-linecap="round" stroke-linejoin="round"/>
<path d="M43.0099 85.0251C46.712 85.0251 49.7131 83.1773 49.7131 80.8978C49.7131 78.6184 46.712 76.7705 43.0099 76.7705C39.3078 76.7705 36.3066 78.6184 36.3066 80.8978C36.3066 83.1773 39.3078 85.0251 43.0099 85.0251Z" fill="white" stroke="#71B8CA" stroke-width="1.23727" stroke-miterlimit="10" stroke-linecap="round" stroke-linejoin="round"/>
<path d="M47.4784 80.1172C47.7244 80.3841 47.8678 80.6511 47.8678 80.8975C47.8678 81.4724 47.1095 82.2116 45.8184 82.7045" fill="white"/>
<path d="M47.4784 80.1172C47.7244 80.3841 47.8678 80.6511 47.8678 80.8975C47.8678 81.4724 47.1095 82.2116 45.8184 82.7045" stroke="#71B8CA" stroke-width="0.618637" stroke-miterlimit="10" stroke-linecap="round" stroke-linejoin="round"/>
<path d="M43.0107 78.6172C44.4662 78.6172 45.6961 78.9663 46.5366 79.418Z" fill="white"/>
<path d="M43.0107 78.6172C44.4662 78.6172 45.6961 78.9663 46.5366 79.418" stroke="#71B8CA" stroke-width="0.618637" stroke-miterlimit="10" stroke-linecap="round" stroke-linejoin="round"/>
</svg>
