<svg width="114" height="103" viewBox="0 0 114 103" fill="none" xmlns="http://www.w3.org/2000/svg">
<path d="M29.1191 15.2991C29.1191 13.5008 30.5963 12.0439 32.4196 12.0439C34.2429 12.0439 35.7201 13.5008 35.7201 15.2991H29.1191Z" fill="white" stroke="#71B8CA" stroke-width="1.83748" stroke-miterlimit="10" stroke-linecap="round" stroke-linejoin="round"/>
<path d="M78.3027 15.2991C78.3027 13.5008 79.7799 12.0439 81.6032 12.0439C83.4265 12.0439 84.9037 13.5008 84.9037 15.2991H78.3027Z" fill="white" stroke="#71B8CA" stroke-width="1.83748" stroke-miterlimit="10" stroke-linecap="round" stroke-linejoin="round"/>
<path d="M82.9425 18.0994C78.1188 18.0994 74.2182 16.2783 71.9333 12.8866L70.4562 10.9289C67.4096 6.89979 62.4704 4.50963 57.2774 4.50963H56.7235C51.5304 4.50963 46.6144 6.89979 43.5447 10.9289L42.0676 12.8866C39.2287 17.1206 33.851 18.8961 27.3193 17.7579L27.804 15.0719C30.9891 15.6182 36.7822 15.8913 39.7826 11.3614L39.8288 11.2931L41.329 9.31271C44.9064 4.60068 50.6534 1.80078 56.7235 1.80078H57.2774C63.3475 1.80078 69.0944 4.60068 72.6719 9.31271L74.2413 11.3614C77.2417 15.8913 83.0348 15.6409 86.2199 15.0719L86.7046 17.7579C85.389 17.9856 84.1427 18.0994 82.9425 18.0994Z" fill="white" stroke="#71B8CA" stroke-width="2.29685" stroke-miterlimit="10" stroke-linecap="round" stroke-linejoin="round"/>
<path d="M11.3013 54.3379H6.93915L2 86.4343C2 86.4343 5.4851 84.8181 6.66219 84.8181C10.4012 84.8181 11.3244 86.4343 11.3244 86.4343V54.3379H11.3013Z" fill="white" stroke="#71B8CA" stroke-width="2.29685" stroke-miterlimit="10" stroke-linecap="round" stroke-linejoin="round"/>
<path d="M11.3013 54.3379H6.93915L2 86.4343C2 86.4343 5.4851 84.8181 6.66219 84.8181C10.4012 84.8181 11.3244 86.4343 11.3244 86.4343V54.3379H11.3013Z" fill="white" stroke="#71B8CA" stroke-width="2.29685" stroke-miterlimit="10" stroke-linecap="round" stroke-linejoin="round"/>
<path d="M10.6785 54.3379H6.9626L2.02344 86.4343C2.02344 86.4343 4.5161 85.2961 5.99323 84.9319L10.6785 54.3379Z" fill="white" stroke="#71B8CA" stroke-width="2.29685" stroke-miterlimit="10" stroke-linecap="round" stroke-linejoin="round"/>
<path d="M102.699 54.3379H107.061L112 86.4343C112 86.4343 108.515 84.8181 107.338 84.8181C103.599 84.8181 102.676 86.4343 102.676 86.4343V54.3379H102.699Z" fill="white" stroke="#71B8CA" stroke-width="2.29685" stroke-miterlimit="10" stroke-linecap="round" stroke-linejoin="round"/>
<path d="M102.699 54.3379H107.061L112 86.4343C112 86.4343 108.515 84.8181 107.338 84.8181C103.599 84.8181 102.676 86.4343 102.676 86.4343V54.3379H102.699Z" fill="white" stroke="#71B8CA" stroke-width="2.29685" stroke-miterlimit="10" stroke-linecap="round" stroke-linejoin="round"/>
<path d="M103.322 54.3379H107.038L111.977 86.4343C111.977 86.4343 109.485 85.2961 108.008 84.9319L103.322 54.3379Z" fill="white" stroke="#71B8CA" stroke-width="2.29685" stroke-miterlimit="10" stroke-linecap="round" stroke-linejoin="round"/>
<path d="M59.7461 82.1104C59.7461 83.6127 58.5228 84.8192 56.9995 84.8192C55.4762 84.8192 54.253 83.6127 54.253 82.1104H52.1758C52.1758 84.7281 54.3453 86.8679 56.9995 86.8679C59.6538 86.8679 61.8233 84.7281 61.8233 82.1104H59.7461Z" fill="white" stroke="#71B8CA" stroke-width="0.918741" stroke-miterlimit="10" stroke-linecap="round" stroke-linejoin="round"/>
<path d="M45.8524 79.447H44.0752C43.3136 79.447 42.6904 78.8323 42.6904 78.0811V71.0928" fill="white"/>
<path d="M45.8524 79.447H44.0752C43.3136 79.447 42.6904 78.8323 42.6904 78.0811V71.0928" stroke="#71B8CA" stroke-width="0.689056" stroke-miterlimit="10" stroke-linecap="round" stroke-linejoin="round" stroke-dasharray="1.15 1.15"/>
<path d="M71.3097 75.7812V78.0804C71.3097 78.8315 70.6865 79.4462 69.9248 79.4462H48.2295" fill="white"/>
<path d="M71.3097 75.7812V78.0804C71.3097 78.8315 70.6865 79.4462 69.9248 79.4462H48.2295" stroke="#71B8CA" stroke-width="0.689056" stroke-miterlimit="10" stroke-linecap="round" stroke-linejoin="round" stroke-dasharray="1.15 1.15"/>
<path d="M69.9244 81.9518H44.0747C42.0436 81.9518 40.3818 80.3128 40.3818 78.3096V69.0449H73.6173V78.3096C73.6173 80.3356 71.9555 81.9518 69.9244 81.9518Z" fill="white" stroke="#71B8CA" stroke-width="2.29685" stroke-miterlimit="10" stroke-linecap="round" stroke-linejoin="round"/>
<path d="M68.7706 73.7329H45.2289C42.113 73.7329 39.5742 71.2289 39.5742 68.1558V62.6016H74.4253V68.1786C74.4253 71.2517 71.8864 73.7329 68.7706 73.7329Z" fill="white" stroke="#71B8CA" stroke-width="2.29685" stroke-miterlimit="10" stroke-linecap="round" stroke-linejoin="round"/>
<path d="M41.8828 67.9055V63.626H72.1178V67.9055C72.1178 69.7266 70.6176 71.2062 68.7712 71.2062H45.2294C43.383 71.2062 41.8828 69.7266 41.8828 67.9055Z" fill="white" stroke="#71B8CA" stroke-width="0.689056" stroke-miterlimit="10" stroke-linecap="round" stroke-linejoin="round" stroke-dasharray="1.15 1.15"/>
<path d="M97.6213 98.5231H16.3791C13.3094 98.5231 10.8398 96.0875 10.8398 93.0599V36.1514H103.16V93.0599C103.16 96.0875 100.691 98.5231 97.6213 98.5231Z" fill="white" stroke="#71B8CA" stroke-width="2.29685" stroke-miterlimit="10" stroke-linecap="round" stroke-linejoin="round"/>
<path d="M16.3786 94.8805C15.3631 94.8805 14.5322 94.061 14.5322 93.0594V39.793H99.4672V93.0594C99.4672 94.061 98.6363 94.8805 97.6208 94.8805H16.3786Z" fill="white" stroke="#71B8CA" stroke-width="0.918741" stroke-miterlimit="10" stroke-linecap="round" stroke-linejoin="round" stroke-dasharray="1.61 1.61"/>
<path d="M7.49308 23.0384L4.37725 45.4604C3.40789 52.4032 7.9316 58.6176 15.2942 60.0745C28.8653 62.7606 42.898 63.5573 57 63.5345C71.102 63.5573 85.1348 62.7833 98.7059 60.0745C106.068 58.6176 110.592 52.4032 109.623 45.4604L106.507 23.0384C106.115 20.2157 103.276 17.9166 100.021 17.7573C71.3097 16.4142 42.7134 16.4142 14.0017 17.7573C10.7474 17.9166 7.88544 20.2157 7.49308 23.0384Z" fill="white" stroke="#71B8CA" stroke-width="2.29685" stroke-miterlimit="10" stroke-linecap="round" stroke-linejoin="round"/>
<path d="M56.2612 59.8705C40.4513 59.8705 27.6649 58.8006 16.0325 56.4788C10.6086 55.4089 7.33126 51.0611 8.04675 45.9393L11.1626 23.5173C11.301 22.5613 12.5705 21.4686 14.163 21.3776C28.3804 20.7174 42.8055 20.376 56.9998 20.376C71.1941 20.376 85.5961 20.7174 99.8365 21.3776C101.452 21.4459 102.698 22.5613 102.837 23.5173L105.953 45.9393C106.668 51.0838 103.391 55.4089 97.9671 56.4788C86.3347 58.8006 73.5483 59.8705 57.7383 59.8705H56.2612Z" fill="white" stroke="#71B8CA" stroke-width="0.918741" stroke-linecap="round" stroke-linejoin="round" stroke-dasharray="1.61 1.61"/>
<path d="M26.5328 42.9792V40.2496H34.612V42.9792H26.5328Z" fill="white" stroke="#71B8CA" stroke-width="0.229685"/>
<path d="M30.5724 101.801C28.2875 101.801 26.418 99.9571 26.418 97.7035V40.1348H34.7268V97.7035C34.7268 99.9571 32.8804 101.801 30.5724 101.801Z" fill="white" stroke="#71B8CA" stroke-width="2.29685" stroke-miterlimit="10" stroke-linecap="round" stroke-linejoin="round"/>
<path d="M35.2581 53.3154H25.9337C24.6874 53.3154 23.6719 54.317 23.6719 55.5462V63.6045C23.6719 64.8337 24.6874 65.8353 25.9337 65.8353H26.4415V63.1037V60.1445V56.047H34.7504V60.1445V63.1037V65.8353H35.2581C36.5044 65.8353 37.52 64.8337 37.52 63.6045V55.5462C37.4969 54.317 36.5044 53.3154 35.2581 53.3154Z" fill="white" stroke="#71B8CA" stroke-width="1.83748" stroke-miterlimit="10" stroke-linecap="round" stroke-linejoin="round"/>
<path d="M30.5731 50.128C31.2742 50.128 31.8425 49.5675 31.8425 48.876C31.8425 48.1846 31.2742 47.624 30.5731 47.624C29.872 47.624 29.3037 48.1846 29.3037 48.876C29.3037 49.5675 29.872 50.128 30.5731 50.128Z" fill="white" stroke="#71B8CA" stroke-width="0.918741" stroke-miterlimit="10" stroke-linecap="round" stroke-linejoin="round"/>
<path d="M30.5731 62.7159C31.2742 62.7159 31.8425 62.1554 31.8425 61.4639C31.8425 60.7724 31.2742 60.2119 30.5731 60.2119C29.872 60.2119 29.3037 60.7724 29.3037 61.4639C29.3037 62.1554 29.872 62.7159 30.5731 62.7159Z" fill="white" stroke="#71B8CA" stroke-width="0.918741" stroke-miterlimit="10" stroke-linecap="round" stroke-linejoin="round"/>
<path d="M30.5731 78.9239C31.2742 78.9239 31.8425 78.3634 31.8425 77.6719C31.8425 76.9805 31.2742 76.4199 30.5731 76.4199C29.872 76.4199 29.3037 76.9805 29.3037 77.6719C29.3037 78.3634 29.872 78.9239 30.5731 78.9239Z" fill="white" stroke="#71B8CA" stroke-width="0.918741" stroke-miterlimit="10" stroke-linecap="round" stroke-linejoin="round"/>
<path d="M30.5731 87.0284C31.2742 87.0284 31.8425 86.4679 31.8425 85.7764C31.8425 85.0849 31.2742 84.5244 30.5731 84.5244C29.872 84.5244 29.3037 85.0849 29.3037 85.7764C29.3037 86.4679 29.872 87.0284 30.5731 87.0284Z" fill="white" stroke="#71B8CA" stroke-width="0.918741" stroke-miterlimit="10" stroke-linecap="round" stroke-linejoin="round"/>
<path d="M30.5726 62.3746C30.0649 62.3746 29.6494 61.9649 29.6494 61.4641V54.2025C29.6494 53.7017 30.0649 53.292 30.5726 53.292C31.0804 53.292 31.4958 53.7017 31.4958 54.2025V61.4641C31.4958 61.9876 31.1035 62.3746 30.5726 62.3746Z" fill="white" stroke="#71B8CA" stroke-width="0.918741" stroke-miterlimit="10" stroke-linecap="round" stroke-linejoin="round"/>
<path d="M83.4269 101.801C81.142 101.801 79.2725 99.9571 79.2725 97.7035V40.1348H87.5813V97.7035C87.5813 99.9571 85.7118 101.801 83.4269 101.801Z" fill="white" stroke="#71B8CA" stroke-width="2.29685" stroke-miterlimit="10" stroke-linecap="round" stroke-linejoin="round"/>
<path d="M88.0892 53.3154H78.7648C77.5185 53.3154 76.5029 54.317 76.5029 55.5462V63.6045C76.5029 64.8337 77.5185 65.8353 78.7648 65.8353H79.2725V63.1037V60.1445V56.047H87.5814V60.1445V63.1037V65.8353H88.0892C89.3355 65.8353 90.351 64.8337 90.351 63.6045V55.5462C90.351 54.317 89.3355 53.3154 88.0892 53.3154Z" fill="white" stroke="#71B8CA" stroke-width="1.83748" stroke-miterlimit="10" stroke-linecap="round" stroke-linejoin="round"/>
<path d="M83.4266 50.128C84.1277 50.128 84.696 49.5675 84.696 48.876C84.696 48.1846 84.1277 47.624 83.4266 47.624C82.7256 47.624 82.1572 48.1846 82.1572 48.876C82.1572 49.5675 82.7256 50.128 83.4266 50.128Z" fill="white" stroke="#71B8CA" stroke-width="0.918741" stroke-miterlimit="10" stroke-linecap="round" stroke-linejoin="round"/>
<path d="M83.4266 62.7159C84.1277 62.7159 84.696 62.1554 84.696 61.4639C84.696 60.7724 84.1277 60.2119 83.4266 60.2119C82.7256 60.2119 82.1572 60.7724 82.1572 61.4639C82.1572 62.1554 82.7256 62.7159 83.4266 62.7159Z" fill="white" stroke="#71B8CA" stroke-width="0.918741" stroke-miterlimit="10" stroke-linecap="round" stroke-linejoin="round"/>
<path d="M83.4266 78.9239C84.1277 78.9239 84.696 78.3634 84.696 77.6719C84.696 76.9805 84.1277 76.4199 83.4266 76.4199C82.7256 76.4199 82.1572 76.9805 82.1572 77.6719C82.1572 78.3634 82.7256 78.9239 83.4266 78.9239Z" fill="white" stroke="#71B8CA" stroke-width="0.918741" stroke-miterlimit="10" stroke-linecap="round" stroke-linejoin="round"/>
<path d="M83.4266 87.0284C84.1277 87.0284 84.696 86.4679 84.696 85.7764C84.696 85.0849 84.1277 84.5244 83.4266 84.5244C82.7256 84.5244 82.1572 85.0849 82.1572 85.7764C82.1572 86.4679 82.7256 87.0284 83.4266 87.0284Z" fill="white" stroke="#71B8CA" stroke-width="0.918741" stroke-miterlimit="10" stroke-linecap="round" stroke-linejoin="round"/>
<path d="M83.4271 62.3746C82.9193 62.3746 82.5039 61.9649 82.5039 61.4641V54.2025C82.5039 53.7017 82.9193 53.292 83.4271 53.292C83.9349 53.292 84.3503 53.7017 84.3503 54.2025V61.4641C84.3272 61.9876 83.9349 62.3746 83.4271 62.3746Z" fill="white" stroke="#71B8CA" stroke-width="0.918741" stroke-miterlimit="10" stroke-linecap="round" stroke-linejoin="round"/>
<path d="M79.3873 42.9792V40.2496H87.4665V42.9792H79.3873Z" fill="white" stroke="#71B8CA" stroke-width="0.229685"/>
<path d="M57.5773 69.3167C58.3039 69.3167 58.8929 68.7358 58.8929 68.0192C58.8929 67.3026 58.3039 66.7217 57.5773 66.7217C56.8507 66.7217 56.2617 67.3026 56.2617 68.0192C56.2617 68.7358 56.8507 69.3167 57.5773 69.3167Z" fill="white" stroke="#71B8CA" stroke-width="0.918741" stroke-miterlimit="10" stroke-linecap="round" stroke-linejoin="round"/>
<path d="M63.2314 43.9806C63.2775 43.3888 62.9313 42.8197 62.3774 42.5693C60.9233 41.9091 59.2847 41.5449 57.5767 41.5449C55.8688 41.5449 54.2301 41.9091 52.776 42.5693C52.2221 42.8197 51.8759 43.3888 51.9221 43.9806C52.199 47.4407 54.0224 50.4682 56.7228 52.3575C57.2305 52.7218 57.8998 52.7218 58.4076 52.3575C61.1311 50.4682 62.9544 47.4407 63.2314 43.9806Z" fill="white" stroke="#71B8CA" stroke-width="1.14843" stroke-miterlimit="10" stroke-linecap="round" stroke-linejoin="round"/>
<path d="M55.0615 43.6849C55.8693 43.4573 56.7233 43.3662 57.5773 43.3662C58.4312 43.3662 59.2852 43.48 60.093 43.6849C60.8546 43.8898 61.3163 44.6637 61.1316 45.4149C60.9008 46.3027 60.5546 47.1449 60.093 47.9417" fill="white"/>
<path d="M55.0615 43.6849C55.8693 43.4573 56.7233 43.3662 57.5773 43.3662C58.4312 43.3662 59.2852 43.48 60.093 43.6849C60.8546 43.8898 61.3163 44.6637 61.1316 45.4149C60.9008 46.3027 60.5546 47.1449 60.093 47.9417" stroke="#71B8CA" stroke-width="0.689056" stroke-miterlimit="10" stroke-linecap="round" stroke-linejoin="round"/>
</svg>
