<svg width="104" height="102" viewBox="0 0 104 102" fill="none" xmlns="http://www.w3.org/2000/svg">
<g style="mix-blend-mode:multiply" opacity="0.15">
<path d="M88.5521 2.55469H6.0472C4.59296 2.55469 3.41406 3.73289 3.41406 5.18627V98.1687C3.41406 99.6221 4.59296 100.8 6.0472 100.8H88.5521C90.0063 100.8 91.1852 99.6221 91.1852 98.1687V5.18627C91.1852 3.73289 90.0063 2.55469 88.5521 2.55469Z" fill="#71B8CA"/>
<path d="M88.5521 2.55469H6.0472C4.59296 2.55469 3.41406 3.73289 3.41406 5.18627V98.1687C3.41406 99.6221 4.59296 100.8 6.0472 100.8H88.5521C90.0063 100.8 91.1852 99.6221 91.1852 98.1687V5.18627C91.1852 3.73289 90.0063 2.55469 88.5521 2.55469Z" stroke="#71B8CA" stroke-width="0.438596" stroke-miterlimit="10"/>
</g>
<path d="M86.138 0.800781H3.63314C2.17889 0.800781 1 1.97898 1 3.43236V96.4148C1 97.8682 2.17889 99.0464 3.63314 99.0464H86.138C87.5923 99.0464 88.7712 97.8682 88.7712 96.4148V3.43236C88.7712 1.97898 87.5923 0.800781 86.138 0.800781Z" fill="white"/>
<path d="M16.3604 68.0215H69.9008" stroke="#71B8CA" stroke-width="0.877193" stroke-linecap="round" stroke-linejoin="round"/>
<path d="M16.3604 71.5303H50.5911" stroke="#71B8CA" stroke-width="0.877193" stroke-linecap="round" stroke-linejoin="round"/>
<path d="M16.3604 75.0391H69.9008" stroke="#71B8CA" stroke-width="0.877193" stroke-linecap="round" stroke-linejoin="round"/>
<path opacity="0.15" d="M86.138 0.800781H3.63314C2.17889 0.800781 1 1.97898 1 3.43236V96.4148C1 97.8682 2.17889 99.0464 3.63314 99.0464H86.138C87.5923 99.0464 88.7712 97.8682 88.7712 96.4148V3.43236C88.7712 1.97898 87.5923 0.800781 86.138 0.800781Z" stroke="#71B8CA" stroke-width="0.877193" stroke-linecap="round" stroke-linejoin="round"/>
<path d="M16.3604 25.4775H69.9008" stroke="#71B8CA" stroke-width="0.877193" stroke-linecap="round" stroke-linejoin="round"/>
<path d="M16.3604 28.9863H50.5911" stroke="#71B8CA" stroke-width="0.877193" stroke-linecap="round" stroke-linejoin="round"/>
<path d="M16.3604 32.4951H69.9008" stroke="#71B8CA" stroke-width="0.877193" stroke-linecap="round" stroke-linejoin="round"/>
<path d="M16.3604 36.0039H50.5911" stroke="#71B8CA" stroke-width="0.877193" stroke-linecap="round" stroke-linejoin="round"/>
<path d="M16.3604 39.5127H57.6128" stroke="#71B8CA" stroke-width="0.877193" stroke-linecap="round" stroke-linejoin="round"/>
<path d="M16.3604 43.3135H42.6917" stroke="#71B8CA" stroke-width="0.877193" stroke-linecap="round" stroke-linejoin="round"/>
<path d="M37.4248 47.1152H52.7848" stroke="#71B8CA" stroke-width="0.877193" stroke-linecap="round" stroke-linejoin="round"/>
<path d="M16.3604 47.1152H34.7923" stroke="#71B8CA" stroke-width="0.877193" stroke-linecap="round" stroke-linejoin="round"/>
<path d="M16.3604 50.916H32.1592" stroke="#71B8CA" stroke-width="0.877193" stroke-linecap="round" stroke-linejoin="round"/>
<path d="M37.4248 64.3662H52.7848" stroke="#71B8CA" stroke-width="0.877193" stroke-linecap="round" stroke-linejoin="round"/>
<path d="M16.3604 64.3662H34.7923" stroke="#71B8CA" stroke-width="0.877193" stroke-linecap="round" stroke-linejoin="round"/>
<path d="M16.3604 60.5654H32.1592" stroke="#71B8CA" stroke-width="0.877193" stroke-linecap="round" stroke-linejoin="round"/>
<path d="M102.942 92.7832L98.5947 93.3876L101.373 97.4293L102.942 92.7832Z" stroke="#71B8CA" stroke-width="1.75439" stroke-linecap="round" stroke-linejoin="round"/>
<path d="M74.2891 38.9839L76.5773 42.0256L83.4252 36.8809" stroke="#71B8CA" stroke-width="1.75439" stroke-linecap="round" stroke-linejoin="round"/>
<path d="M74.2891 72.3902L76.5773 75.4323L83.4252 70.2871" stroke="#71B8CA" stroke-width="1.75439" stroke-linecap="round" stroke-linejoin="round"/>
<path d="M99.0703 64.9814L94.7236 65.5859L98.5947 93.3882L102.941 92.7837L99.0703 64.9814Z" stroke="#71B8CA" stroke-width="1.75439" stroke-linecap="round" stroke-linejoin="round"/>
<path d="M97.4642 60.5656L94.8574 60.9287L95.463 65.2708L98.0698 64.9077L97.4642 60.5656Z" stroke="#71B8CA" stroke-width="1.75439" stroke-linecap="round" stroke-linejoin="round"/>
<path d="M103 75.9521C102.509 75.1429 102.16 74.255 101.97 73.3275C101.486 70.9446 102.683 69.5823 102.035 68.2262C101.777 67.6854 101.652 66.9468 99.7139 66.667" stroke="#71B8CA" stroke-width="1.75439" stroke-linecap="round" stroke-linejoin="round"/>
</svg>
