<svg width="300" height="225" viewBox="0 0 300 225" fill="none" xmlns="http://www.w3.org/2000/svg">
<g opacity="0.3">
<path opacity="0.86" d="M166.208 225C240.099 225 300 216.677 300 206.41C300 196.143 240.099 187.82 166.208 187.82C92.3167 187.82 32.416 196.143 32.416 206.41C32.416 216.677 92.3167 225 166.208 225Z" fill="#2D2C3A"/>
<rect x="75.2538" y="64.5204" width="181.927" height="144.138" rx="3.60321" fill="#71B8CA" stroke="black" stroke-width="3.60321"/>
<path d="M76.9131 68.4234C76.9131 67.2479 77.866 66.2949 79.0416 66.2949H253.35C254.525 66.2949 255.478 67.2479 255.478 68.4234V204.849C255.478 206.024 254.525 206.977 253.35 206.977H79.0416C77.866 206.977 76.9131 206.024 76.9131 204.849V68.4234Z" fill="#4C93A5"/>
<rect x="81.1689" y="70.3594" width="170.358" height="132.555" rx="9.67493" fill="#71B8CA"/>
<rect x="2.41604" y="-0.808294" width="196.212" height="19.6087" rx="3.60321" transform="matrix(0.446164 -0.894951 0.894884 0.446299 2.06142 201.205)" fill="#71B8CA" stroke="black" stroke-width="3.60321"/>
<path d="M157.877 137.479H174.872C176.124 137.479 177.139 138.494 177.139 139.746V144.847C177.139 147.35 179.169 149.38 181.673 149.38H194.173C196.198 149.38 197.206 151.833 195.767 153.258L167.969 180.776C167.086 181.65 165.663 181.65 164.78 180.776L136.982 153.258C135.543 151.833 136.552 149.38 138.577 149.38H151.077C153.58 149.38 155.61 147.35 155.61 144.847V139.746C155.61 138.494 156.625 137.479 157.877 137.479Z" fill="#E4F6FA" stroke="black" stroke-width="2.2667"/>
<rect x="120.309" y="101.186" width="90.226" height="15.7481" rx="3.60295" fill="#E4F6FA" stroke="black" stroke-width="3.60295"/>
<path d="M288.355 67.9586L275.359 66.1567M257.408 47.5582L255.478 34.5586M270.276 52.256L279.605 42.9246" stroke="black" stroke-width="3.86102" stroke-miterlimit="10" stroke-linecap="round" stroke-linejoin="round"/>
</g>
</svg>
