<svg width="254" height="193" viewBox="0 0 254 193" fill="none" xmlns="http://www.w3.org/2000/svg">
<g opacity="0.3">
<path opacity="0.5" d="M223.402 36.7159H158.831V18.358H180.014C185.097 18.358 189.193 14.2627 189.193 9.17898C189.193 4.09524 185.097 0 180.014 0H72.9726C67.8888 0 63.7936 4.09524 63.7936 9.17898C63.7936 14.2627 67.8888 18.358 72.9726 18.358H94.1548V36.7159H29.5843C24.5005 36.7159 20.4053 40.8112 20.4053 45.8949C20.4053 50.9786 24.5005 55.0739 29.5843 55.0739H53.8026V73.4319H55.1089C50.0251 73.4319 45.9299 77.5271 45.9299 82.6108C45.9299 87.6946 50.0251 91.7898 55.1089 91.7898H89.9184V110.148H63.0875C58.0038 110.148 53.9085 114.243 53.9085 119.327C53.9085 124.41 58.0038 128.506 63.0875 128.506H89.9184V146.864H52.2493C47.1655 146.864 43.0703 150.959 43.0703 156.043C43.0703 161.126 47.1655 165.222 52.2493 165.222H189.404C194.488 165.222 198.583 161.126 198.583 156.043C198.583 150.959 194.488 146.864 189.404 146.864H163.103V128.506H171.435C176.519 128.506 180.614 124.41 180.614 119.327C180.614 114.243 176.519 110.148 171.435 110.148H163.103V91.7898H197.913C202.996 91.7898 207.092 87.6946 207.092 82.6108C207.092 77.5271 202.996 73.4319 197.913 73.4319H199.219V55.0739H223.437C228.521 55.0739 232.616 50.9786 232.616 45.8949C232.581 40.8465 228.45 36.7159 223.402 36.7159Z" fill="#6AA8B7"/>
<path opacity="0.69" d="M248.75 192.9H4.23645C1.9064 192.9 0 190.994 0 188.664C0 186.334 1.9064 184.427 4.23645 184.427H248.786C251.116 184.427 253.022 186.334 253.022 188.664C252.987 190.994 251.116 192.9 248.75 192.9Z" fill="#4C5B5D"/>
<path opacity="0.5" d="M31.8089 92.7081H22.2063C17.1226 92.7081 13.0273 88.6128 13.0273 83.5291C13.0273 78.4453 17.1226 74.3501 22.2063 74.3501H31.8089C36.8927 74.3501 40.9879 78.4453 40.9879 83.5291C40.9879 88.5775 36.8927 92.7081 31.8089 92.7081Z" fill="#6AA8B7"/>
<path d="M146.228 73.4317H106.758C101.674 73.4317 97.5791 69.3365 97.5791 64.2527C97.5791 59.169 101.674 55.0737 106.758 55.0737H146.192C151.276 55.0737 155.371 59.169 155.371 64.2527C155.407 69.3365 151.276 73.4317 146.228 73.4317Z" fill="#61939E"/>
<path d="M73.6437 73.4317H34.1741C29.0904 73.4317 24.9951 69.3365 24.9951 64.2527C24.9951 59.169 29.0904 55.0737 34.1741 55.0737H73.6084C78.6922 55.0737 82.7874 59.169 82.7874 64.2527C82.8227 69.3365 78.6922 73.4317 73.6437 73.4317Z" fill="#61939E"/>
<path d="M99.0625 36.7159H59.6282C54.5445 36.7159 50.4492 32.6206 50.4492 27.5369C50.4492 22.4531 54.5445 18.3579 59.6282 18.3579H99.0625C104.146 18.3579 108.241 22.4531 108.241 27.5369C108.241 32.6206 104.146 36.7159 99.0625 36.7159Z" fill="#61939E"/>
<path d="M185.698 36.7159H146.264C141.18 36.7159 137.085 32.6206 137.085 27.5369C137.085 22.4531 141.18 18.3579 146.264 18.3579H185.698C190.782 18.3579 194.877 22.4531 194.877 27.5369C194.877 32.6206 190.782 36.7159 185.698 36.7159Z" fill="#61939E"/>
<path d="M94.8966 146.864H55.427C50.3433 146.864 46.248 142.769 46.248 137.685C46.248 132.601 50.3433 128.506 55.427 128.506H94.8613C99.9451 128.506 104.04 132.601 104.04 137.685C104.076 142.769 99.9451 146.864 94.8966 146.864Z" fill="#61939E"/>
<path d="M136.912 20.9707H123.461V43.7416H136.912V20.9707Z" fill="#72C3D4"/>
<path d="M134.687 20.9707H121.236V43.7416H134.687V20.9707Z" fill="#E4F6FA"/>
<path opacity="0.82" d="M134.687 41.0933H121.236V43.388H134.687V41.0933Z" fill="#71B8CA"/>
<path opacity="0.82" d="M136.911 41.0933H134.687V43.388H136.911V41.0933Z" fill="#71B8CA"/>
<path d="M146.796 43.3882H116.329V57.7921H146.796V43.3882Z" fill="#72C3D4"/>
<path d="M104.891 179.802L126.32 120.915L113.575 116.255L90.416 179.802H104.891Z" fill="#7DCDDD"/>
<path d="M99.3486 179.802L120.778 120.915L107.998 116.255L84.874 179.802H99.3486Z" fill="#E4F6FA"/>
<path opacity="0.82" d="M112.904 118.056L107.997 116.255L98.6416 141.992H118.624L126.32 120.915L113.575 116.255L112.904 118.056Z" fill="#71B8CA"/>
<path d="M93.9815 179.802H74.1055V188.981H93.9815V179.802Z" fill="#E4F6FA"/>
<path d="M111.351 179.802H91.4746V188.981H111.351V179.802Z" fill="#99DCE9"/>
<path d="M113.787 146.935L109.374 159.008H146.655V146.935H113.787Z" fill="#BEEAF2"/>
<path opacity="0.87" d="M113.787 146.935L109.374 159.008H111.775L116.188 146.935H113.787Z" fill="#71B8CA"/>
<path d="M168.861 179.802L145.702 116.255L132.957 120.915L154.386 179.802H168.861Z" fill="#7DCDDD"/>
<path d="M164.766 179.802L141.642 116.255L128.897 120.915L150.327 179.802H164.766Z" fill="#E4F6FA"/>
<path opacity="0.82" d="M145.702 116.255L142.101 117.562L141.642 116.255L128.897 120.915L136.558 141.992H155.093L145.702 116.255Z" fill="#71B8CA"/>
<path d="M80.7783 137.649H74V131.789C74 129.671 75.7299 127.941 77.8481 127.941H80.8136V137.649H80.7783Z" fill="#72C3D4"/>
<path d="M179.099 137.649H74V131.789C74 129.671 75.7299 127.941 77.8481 127.941H179.135V137.649H179.099Z" fill="#E4F6FA"/>
<path d="M179.099 137.649H172.32V131.789C172.32 129.671 174.05 127.941 176.168 127.941H179.134V137.649H179.099Z" fill="#72C3D4"/>
<path d="M172.886 57.7925H88.0156V127.941H172.886V57.7925Z" fill="#72C3D4"/>
<path d="M167.52 57.7925H82.6494V127.941H167.52V57.7925Z" fill="white"/>
<path d="M161.483 179.802H141.607V188.981H161.483V179.802Z" fill="#E4F6FA"/>
<path d="M178.888 179.802H159.012V188.981H178.888V179.802Z" fill="#99DCE9"/>
<path d="M141.784 43.3882H111.316V57.7921H141.784V43.3882Z" fill="#E4F6FA"/>
<path opacity="0.82" d="M128.721 54.2267C130.73 54.2267 132.358 52.5987 132.358 50.5904C132.358 48.5821 130.73 46.9541 128.721 46.9541C126.713 46.9541 125.085 48.5821 125.085 50.5904C125.085 52.5987 126.713 54.2267 128.721 54.2267Z" fill="#71B8CA"/>
<path d="M127.768 54.2267C129.776 54.2267 131.404 52.5987 131.404 50.5904C131.404 48.5821 129.776 46.9541 127.768 46.9541C125.76 46.9541 124.132 48.5821 124.132 50.5904C124.132 52.5987 125.76 54.2267 127.768 54.2267Z" fill="#597F86"/>
</g>
</svg>
