<svg width="50" height="50" viewBox="0 0 50 50" fill="none" xmlns="http://www.w3.org/2000/svg">
<g filter="url(#filter0_d)">
<circle cx="25" cy="21" r="21" fill="#71B8CA"/>
<path d="M22.774 28.115C21.532 28.115 20.428 27.8467 19.462 27.31C18.5113 26.758 17.76 25.999 17.208 25.033C16.6713 24.067 16.403 22.963 16.403 21.721C16.403 20.4637 16.656 19.3597 17.162 18.409C17.6833 17.443 18.3963 16.684 19.301 16.132C20.2057 15.58 21.2483 15.304 22.429 15.304C23.5943 15.304 24.6063 15.5723 25.465 16.109C26.339 16.6303 27.0137 17.3587 27.489 18.294C27.9643 19.2293 28.202 20.295 28.202 21.491C28.202 21.7363 28.1253 21.9357 27.972 22.089C27.8187 22.227 27.6193 22.296 27.374 22.296H18.082C18.174 23.124 18.427 23.86 18.841 24.504C19.255 25.1327 19.7993 25.631 20.474 25.999C21.1487 26.3517 21.9153 26.528 22.774 26.528C23.326 26.528 23.878 26.436 24.43 26.252C24.9973 26.0527 25.4497 25.8073 25.787 25.516C25.9557 25.378 26.1473 25.309 26.362 25.309C26.5767 25.2937 26.7607 25.3473 26.914 25.47C27.1133 25.654 27.213 25.8533 27.213 26.068C27.2283 26.2827 27.144 26.4667 26.96 26.62C26.454 27.0493 25.81 27.4097 25.028 27.701C24.246 27.977 23.4947 28.115 22.774 28.115ZM22.429 16.891C21.2483 16.891 20.2747 17.259 19.508 17.995C18.7413 18.7157 18.2813 19.6587 18.128 20.824H26.546C26.4233 19.6587 25.994 18.7157 25.258 17.995C24.5373 17.259 23.5943 16.891 22.429 16.891ZM31.6119 28.368C31.2439 28.368 30.9296 28.2377 30.6689 27.977C30.4083 27.7163 30.2779 27.402 30.2779 27.034C30.2779 26.6507 30.4083 26.3287 30.6689 26.068C30.9449 25.8073 31.2593 25.677 31.6119 25.677C31.9799 25.677 32.2943 25.815 32.5549 26.091C32.8156 26.3517 32.9459 26.666 32.9459 27.034C32.9459 27.3867 32.8156 27.701 32.5549 27.977C32.3096 28.2377 31.9953 28.368 31.6119 28.368Z" fill="white"/>
</g>
<defs>
<filter id="filter0_d" x="0" y="0" width="50" height="50" filterUnits="userSpaceOnUse" color-interpolation-filters="sRGB">
<feFlood flood-opacity="0" result="BackgroundImageFix"/>
<feColorMatrix in="SourceAlpha" type="matrix" values="0 0 0 0 0 0 0 0 0 0 0 0 0 0 0 0 0 0 127 0" result="hardAlpha"/>
<feOffset dy="4"/>
<feGaussianBlur stdDeviation="2"/>
<feComposite in2="hardAlpha" operator="out"/>
<feColorMatrix type="matrix" values="0 0 0 0 0 0 0 0 0 0 0 0 0 0 0 0 0 0 0.25 0"/>
<feBlend mode="normal" in2="BackgroundImageFix" result="effect1_dropShadow"/>
<feBlend mode="normal" in="SourceGraphic" in2="effect1_dropShadow" result="shape"/>
</filter>
</defs>
</svg>
