<svg width="180" height="195" viewBox="0 0 180 195" fill="none" xmlns="http://www.w3.org/2000/svg">
<g opacity="0.3">
<path d="M85.3077 194.9C132.422 194.9 170.615 190.131 170.615 184.248C170.615 178.366 132.422 173.597 85.3077 173.597C38.1936 173.597 0 178.366 0 184.248C0 190.131 38.1936 194.9 85.3077 194.9Z" fill="#212552"/>
<path d="M66.3866 176.727V173.269C66.3866 171.728 65.1252 170.466 63.5835 170.466H32.7494C31.2077 170.466 29.9463 171.728 29.9463 173.269V183.547C29.9463 185.089 31.2077 186.351 32.7494 186.351H53.2588C55.5012 186.351 57.6503 185.463 59.2387 183.874L66.3866 176.727Z" fill="#BEEAF2"/>
<path opacity="0.3" d="M63.5835 170.466H32.7494C31.2077 170.466 29.9463 171.728 29.9463 173.269V182.8H60.3132L66.3866 176.727V173.269C66.3866 171.728 65.1252 170.466 63.5835 170.466Z" fill="#0A1E2B" stroke="#0A1E2B" stroke-width="2.8031" stroke-miterlimit="10" stroke-linecap="round" stroke-linejoin="round"/>
<path d="M104.229 176.727V173.269C104.229 171.728 105.49 170.466 107.032 170.466H137.866C139.407 170.466 140.669 171.728 140.669 173.269V183.547C140.669 185.089 139.407 186.351 137.866 186.351H117.356C115.114 186.351 112.965 185.463 111.376 183.874L104.229 176.727Z" fill="#BEEAF2"/>
<path opacity="0.3" d="M137.866 170.466H107.032C105.49 170.466 104.229 171.728 104.229 173.269V176.727L110.302 182.8H140.669V173.269C140.669 171.728 139.407 170.466 137.866 170.466Z" fill="#0A1E2B" stroke="#0A1E2B" stroke-width="2.8031" stroke-miterlimit="10" stroke-linecap="round" stroke-linejoin="round"/>
<path d="M66.3866 176.727V173.269C66.3866 171.728 65.1252 170.466 63.5835 170.466H32.7494C31.2077 170.466 29.9463 171.728 29.9463 173.269V183.547C29.9463 185.089 31.2077 186.351 32.7494 186.351H53.2588C55.5012 186.351 57.6503 185.463 59.2387 183.874L66.3866 176.727Z" stroke="#212552" stroke-width="2.8031" stroke-miterlimit="10" stroke-linecap="round" stroke-linejoin="round"/>
<path d="M104.229 176.727V173.269C104.229 171.728 105.49 170.466 107.032 170.466H137.866C139.407 170.466 140.669 171.728 140.669 173.269V183.547C140.669 185.089 139.407 186.351 137.866 186.351H117.356C115.114 186.351 112.965 185.463 111.376 183.874L104.229 176.727Z" stroke="#212552" stroke-width="2.8031" stroke-miterlimit="10" stroke-linecap="round" stroke-linejoin="round"/>
<path d="M146.042 176.774H24.5741C14.2493 176.774 5.88672 168.411 5.88672 158.086V36.6185C5.88672 26.2937 14.2493 17.9312 24.5741 17.9312H146.042C156.367 17.9312 164.729 26.2937 164.729 36.6185V158.086C164.729 168.411 156.367 176.774 146.042 176.774Z" fill="#7DCDDD"/>
<path d="M146.042 17.9312H24.5741C14.2493 17.9312 5.88672 26.2937 5.88672 36.6185V47.3637C5.88672 37.039 14.2493 28.6764 24.5741 28.6764H146.042C156.367 28.6764 164.729 37.039 164.729 47.3637V36.6185C164.729 26.2937 156.367 17.9312 146.042 17.9312Z" fill="#E8F9FF"/>
<path d="M146.042 166.028H24.5741C14.2493 166.028 5.88672 157.666 5.88672 147.341V158.086C5.88672 168.411 14.2493 176.773 24.5741 176.773H146.042C156.367 176.773 164.729 168.411 164.729 158.086V147.341C164.729 157.666 156.367 166.028 146.042 166.028Z" fill="#BEEAF2"/>
<path opacity="0.23" d="M23.9668 157.666L40.9723 176.774H72.7408L93.2501 176.633L89.1856 146.22L23.9668 157.666Z" fill="#0A1E2B" stroke="#0A1E2B" stroke-width="2.8031" stroke-miterlimit="10" stroke-linecap="round" stroke-linejoin="round"/>
<path d="M30.18 159.955C26.0688 159.955 22.7051 156.591 22.7051 152.48V42.2245C22.7051 38.1132 26.0688 34.7495 30.18 34.7495H140.435C144.547 34.7495 147.91 38.1132 147.91 42.2245V152.48C147.91 156.591 144.547 159.955 140.435 159.955H30.18Z" fill="#BEEAF2"/>
<path d="M147.91 42.2245V152.48C147.91 156.591 144.547 159.955 140.435 159.955H30.18C26.0688 159.955 22.7051 156.591 22.7051 152.48V42.2245C22.7051 38.1132 26.0688 34.7495 30.18 34.7495H89.6992C91.8015 35.7306 93.2498 37.9264 93.2498 40.309V45.121H131.839C133.054 45.121 134.175 45.6349 134.969 46.4291L144.64 36.0576C146.602 37.3657 147.91 39.6549 147.91 42.2245Z" stroke="#212552" stroke-width="2.8031" stroke-miterlimit="10" stroke-linecap="round" stroke-linejoin="round"/>
<path opacity="0.23" d="M127.774 140.52L153.283 154.816L158.422 138.838L144.64 129.401L127.774 140.52Z" fill="#0A1E2B" stroke="#0A1E2B" stroke-width="2.8031" stroke-miterlimit="10" stroke-linecap="round" stroke-linejoin="round"/>
<path d="M144.64 36.0576L134.969 46.4291C134.175 45.6349 133.054 45.121 131.839 45.121H93.2498V40.309C93.2498 37.9264 91.7548 35.7306 89.6992 34.7495H140.435C141.977 34.7495 143.472 35.2167 144.64 36.0576Z" fill="#71B8CA" fill-opacity="0.24"/>
<path d="M144.64 36.0576L134.969 46.4291C134.175 45.6349 133.054 45.121 131.839 45.121H93.2498V40.309C93.2498 37.9264 91.7548 35.7306 89.6992 34.7495H140.435C141.977 34.7495 143.472 35.2167 144.64 36.0576Z" stroke="#212552" stroke-width="2.8031" stroke-miterlimit="10" stroke-linecap="round" stroke-linejoin="round"/>
<path d="M134.969 46.3823C135.764 47.1765 136.278 48.2978 136.278 49.5125V142.435C136.278 145.145 134.082 147.294 131.419 147.294H93.25" stroke="#212552" stroke-width="2.8031" stroke-miterlimit="10" stroke-linecap="round" stroke-linejoin="round"/>
<path opacity="0.23" d="M140.435 34.7495H64.6582L66.854 102.771H107.919L139.501 85.4389L147.91 54.2311V42.2245C147.91 38.0665 144.547 34.7495 140.435 34.7495Z" fill="#0A1E2B" stroke="#0A1E2B" stroke-width="2.8031" stroke-miterlimit="10" stroke-linecap="round" stroke-linejoin="round"/>
<path d="M28.7314 153.881V40.7295C28.7314 36.4781 31.1141 32.6005 34.0573 31.9932L71.8525 24.4248C75.6367 23.6773 78.7201 27.041 78.7201 31.8997V162.711C78.7201 167.617 75.59 170.934 71.8525 170.186L34.0573 162.618C31.1141 162.057 28.7314 158.133 28.7314 153.881Z" fill="#BEEAF2"/>
<path d="M28.7314 153.881V40.7295C28.7314 36.4781 31.1141 32.6005 34.0573 31.9932L71.8525 24.4248C75.6367 23.6773 78.7201 27.041 78.7201 31.8997V162.711C78.7201 167.617 75.59 170.934 71.8525 170.186L34.0573 162.618C31.1141 162.057 28.7314 158.133 28.7314 153.881Z" stroke="#212552" stroke-width="2.8031" stroke-miterlimit="10" stroke-linecap="round" stroke-linejoin="round"/>
<path d="M22.7051 152.48V42.2244C22.7051 38.1132 24.9943 34.1889 27.8908 33.5348L65.686 24.7051C69.5169 23.8174 72.7405 27.041 72.7405 31.9464V162.758C72.7405 167.663 69.5636 170.887 65.686 169.999L27.9375 161.169C24.9943 160.469 22.7051 156.591 22.7051 152.48Z" fill="#7DCDDD"/>
<path d="M65.6861 162.477L27.9377 153.648C25.0412 152.947 22.752 149.069 22.752 144.958V152.433C22.752 156.544 25.0412 160.468 27.9377 161.123L65.6861 169.952C69.517 170.84 72.7406 167.616 72.7406 162.711V155.236C72.7406 160.188 69.517 163.412 65.6861 162.477Z" fill="#BEEAF2"/>
<path d="M65.6861 24.7051L27.9377 33.5348C25.0412 34.2356 22.752 38.1132 22.752 42.2244V47.8307C22.752 43.7194 25.0412 39.7951 27.9377 39.141L65.6861 30.3113C69.517 29.4236 72.7406 32.6472 72.7406 37.5526V31.9464C72.7406 27.041 69.517 23.8174 65.6861 24.7051Z" fill="#E8F9FF"/>
<path d="M66.854 64.1357C68.0667 64.1357 69.0497 61.9186 69.0497 59.1836C69.0497 56.4486 68.0667 54.2314 66.854 54.2314C65.6413 54.2314 64.6582 56.4486 64.6582 59.1836C64.6582 61.9186 65.6413 64.1357 66.854 64.1357Z" fill="#212552"/>
<path d="M22.7051 152.48V42.2244C22.7051 38.1132 24.9943 34.1889 27.8908 33.5348L65.686 24.7051C69.5169 23.8174 72.7405 27.041 72.7405 31.9464V162.758C72.7405 167.663 69.5636 170.887 65.686 169.999L27.9375 161.169C24.9943 160.469 22.7051 156.591 22.7051 152.48Z" stroke="#212552" stroke-width="2.8031" stroke-miterlimit="10" stroke-linecap="round" stroke-linejoin="round"/>
<path d="M45.8772 126.178C53.0759 126.178 58.9116 114.757 58.9116 100.669C58.9116 86.5816 53.0759 75.1611 45.8772 75.1611C38.6785 75.1611 32.8428 86.5816 32.8428 100.669C32.8428 114.757 38.6785 126.178 45.8772 126.178Z" fill="#99DCE9" stroke="#99DCE9" stroke-width="2.8031" stroke-miterlimit="10" stroke-linecap="round" stroke-linejoin="round"/>
<path d="M45.4104 128.467C47.6293 128.467 49.4281 126.835 49.4281 124.823C49.4281 122.81 47.6293 121.179 45.4104 121.179C43.1914 121.179 41.3926 122.81 41.3926 124.823C41.3926 126.835 43.1914 128.467 45.4104 128.467Z" fill="#99DCE9" stroke="#99DCE9" stroke-width="2.8031" stroke-miterlimit="10" stroke-linecap="round" stroke-linejoin="round"/>
<path d="M46.4377 123.515C54.1266 123.515 60.3598 111.906 60.3598 97.5859C60.3598 83.2659 54.1266 71.6572 46.4377 71.6572C38.7487 71.6572 32.5156 83.2659 32.5156 97.5859C32.5156 111.906 38.7487 123.515 46.4377 123.515Z" fill="#7DCDDD"/>
<path d="M45.4106 119.076C51.4482 119.076 56.3427 109.455 56.3427 97.5857C56.3427 85.7168 51.4482 76.0952 45.4106 76.0952C39.373 76.0952 34.4785 85.7168 34.4785 97.5857C34.4785 109.455 39.373 119.076 45.4106 119.076Z" fill="#BEEAF2"/>
<g opacity="0.23">
<path d="M33.3098 97.5859L53.7725 98.3802L47.6991 123.421L40.9717 121.459L32.5156 97.5859" fill="#0A1E2B"/>
<path d="M33.3098 97.5859L53.7725 98.3802L47.6991 123.421L40.9717 121.459L32.5156 97.5859" stroke="#0A1E2B" stroke-width="2.8031" stroke-miterlimit="10" stroke-linecap="round" stroke-linejoin="round"/>
</g>
<path d="M46.4377 123.515C54.1266 123.515 60.3598 111.906 60.3598 97.5859C60.3598 83.2659 54.1266 71.6572 46.4377 71.6572C38.7487 71.6572 32.5156 83.2659 32.5156 97.5859C32.5156 111.906 38.7487 123.515 46.4377 123.515Z" stroke="#212552" stroke-width="2.8031" stroke-miterlimit="10" stroke-linecap="round" stroke-linejoin="round"/>
<path opacity="0.23" d="M22.7052 79.8329C20.6496 79.8329 18.9678 78.151 18.9678 76.0954V64.883C18.9678 62.8274 20.6496 61.1455 22.7052 61.1455C24.7609 61.1455 26.4427 62.8274 26.4427 64.883V76.0954C26.4427 78.151 24.7609 79.8329 22.7052 79.8329Z" fill="#0A1E2B" stroke="#0A1E2B" stroke-width="2.8031" stroke-miterlimit="10" stroke-linecap="round" stroke-linejoin="round"/>
<path opacity="0.23" d="M22.7052 140.8C20.6496 140.8 18.9678 139.118 18.9678 137.063V125.85C18.9678 123.795 20.6496 122.113 22.7052 122.113C24.7609 122.113 26.4427 123.795 26.4427 125.85V137.063C26.4427 139.118 24.7609 140.8 22.7052 140.8Z" fill="#0A1E2B" stroke="#0A1E2B" stroke-width="2.8031" stroke-miterlimit="10" stroke-linecap="round" stroke-linejoin="round"/>
<path d="M22.7052 76.0956C20.6496 76.0956 18.9678 74.4137 18.9678 72.3581V61.1457C18.9678 59.0901 20.6496 57.4082 22.7052 57.4082C24.7609 57.4082 26.4427 59.0901 26.4427 61.1457V72.3581C26.4427 74.4137 24.7609 76.0956 22.7052 76.0956Z" fill="#BEEAF2"/>
<path d="M22.7052 137.296C20.6496 137.296 18.9678 135.614 18.9678 133.559V122.346C18.9678 120.291 20.6496 118.609 22.7052 118.609C24.7609 118.609 26.4427 120.291 26.4427 122.346V133.559C26.4427 135.614 24.7609 137.296 22.7052 137.296Z" fill="#BEEAF2"/>
<path d="M22.7052 76.0956C20.6496 76.0956 18.9678 74.4137 18.9678 72.3581V61.1457C18.9678 59.0901 20.6496 57.4082 22.7052 57.4082C24.7609 57.4082 26.4427 59.0901 26.4427 61.1457V72.3581C26.4427 74.4137 24.7609 76.0956 22.7052 76.0956Z" stroke="#212552" stroke-width="2.8031" stroke-miterlimit="10" stroke-linecap="round" stroke-linejoin="round"/>
<path d="M22.7052 137.296C20.6496 137.296 18.9678 135.614 18.9678 133.559V122.346C18.9678 120.291 20.6496 118.609 22.7052 118.609C24.7609 118.609 26.4427 120.291 26.4427 122.346V133.559C26.4427 135.614 24.7609 137.296 22.7052 137.296Z" stroke="#212552" stroke-width="2.8031" stroke-miterlimit="10" stroke-linecap="round" stroke-linejoin="round"/>
<path d="M177.811 26.2471L168.374 24.939" stroke="#212552" stroke-width="2.8031" stroke-miterlimit="10" stroke-linecap="round" stroke-linejoin="round"/>
<path d="M155.339 11.4371L153.938 2" stroke="#212552" stroke-width="2.8031" stroke-miterlimit="10" stroke-linecap="round" stroke-linejoin="round"/>
<path d="M164.683 14.8474L171.457 8.07324" stroke="#212552" stroke-width="2.8031" stroke-miterlimit="10" stroke-linecap="round" stroke-linejoin="round"/>
<path d="M43.9149 88.0088H36.5801V107.21H43.9149C47.1384 107.21 49.7079 102.912 49.7079 97.6328C49.7079 92.3536 47.0917 88.0088 43.9149 88.0088Z" fill="#E4F6FA"/>
<path d="M43.9149 88.0088H36.5801V107.21H43.9149C47.1384 107.21 49.7079 102.912 49.7079 97.6328C49.7079 92.3536 47.0917 88.0088 43.9149 88.0088Z" stroke="#212552" stroke-width="2.8031" stroke-miterlimit="10" stroke-linecap="round" stroke-linejoin="round"/>
<path d="M43.9151 107.163C47.1146 107.163 49.7082 102.875 49.7082 97.5861C49.7082 92.2967 47.1146 88.0088 43.9151 88.0088C40.7157 88.0088 38.1221 92.2967 38.1221 97.5861C38.1221 102.875 40.7157 107.163 43.9151 107.163Z" stroke="#212552" stroke-width="4.67184" stroke-miterlimit="10" stroke-linecap="round" stroke-linejoin="round"/>
<path d="M53.0714 97.5859H43.4941" stroke="#212552" stroke-width="4.20465" stroke-miterlimit="10" stroke-linecap="round" stroke-linejoin="round"/>
<path d="M38.0752 88.0085H43.915V80.4868L38.0752 88.0085Z" stroke="#212552" stroke-width="2.8031" stroke-miterlimit="10" stroke-linecap="round" stroke-linejoin="round"/>
<path d="M38.0752 88.0085H43.915V80.4868L38.0752 88.0085Z" fill="#212552"/>
<path d="M38.0752 107.163H43.915V114.685L38.0752 107.163Z" fill="#212552"/>
<path d="M38.0752 107.163H43.915V114.685L38.0752 107.163Z" stroke="#212552" stroke-width="2.8031" stroke-miterlimit="10" stroke-linecap="round" stroke-linejoin="round"/>
<path d="M36.5802 107.163C39.7796 107.163 42.3733 102.875 42.3733 97.5861C42.3733 92.2967 39.7796 88.0088 36.5802 88.0088C33.3808 88.0088 30.7871 92.2967 30.7871 97.5861C30.7871 102.875 33.3808 107.163 36.5802 107.163Z" fill="#FFEA9E"/>
<path d="M36.1125 102.258C37.6864 102.258 38.9623 100.166 38.9623 97.5859C38.9623 95.0057 37.6864 92.9141 36.1125 92.9141C34.5386 92.9141 33.2627 95.0057 33.2627 97.5859C33.2627 100.166 34.5386 102.258 36.1125 102.258Z" fill="#FFE07D"/>
<path d="M36.5802 107.163C39.7796 107.163 42.3733 102.875 42.3733 97.5861C42.3733 92.2967 39.7796 88.0088 36.5802 88.0088C33.3808 88.0088 30.7871 92.2967 30.7871 97.5861C30.7871 102.875 33.3808 107.163 36.5802 107.163Z" stroke="#212552" stroke-width="2.8031" stroke-miterlimit="10" stroke-linecap="round" stroke-linejoin="round"/>
<path d="M87.7836 160.469L78.2998 161.403V33.2544L87.7836 34.1888C90.8203 34.4691 93.2497 37.2255 93.2497 40.2622V154.348C93.2497 157.432 90.8203 160.188 87.7836 160.469Z" fill="#7DCDDD"/>
<path opacity="0.23" d="M93.5295 81.9821V68.6206H83.1113V82.7763H83.158C83.158 85.6728 85.494 88.0087 88.3905 88.0087C91.2871 88.0087 93.623 85.6728 93.623 82.7763C93.623 82.496 93.5762 82.2624 93.5295 81.9821Z" fill="#0A1E2B" stroke="#0A1E2B" stroke-width="2.8031" stroke-miterlimit="10" stroke-linecap="round" stroke-linejoin="round"/>
<path d="M93.2493 40.2622V154.348C93.2493 156.731 91.801 158.927 89.7921 159.908C89.2315 160.188 88.5775 160.375 87.9234 160.422L78.7666 161.356V33.2544L87.9234 34.1888C88.5775 34.2355 89.1848 34.4224 89.7921 34.7027C91.801 35.7305 93.2493 37.8795 93.2493 40.2622Z" stroke="#212552" stroke-width="2.8031" stroke-miterlimit="10" stroke-linecap="round" stroke-linejoin="round"/>
<path d="M134.502 146.22L145.808 157.666" stroke="#212552" stroke-width="2.8031" stroke-miterlimit="10" stroke-linecap="round" stroke-linejoin="round"/>
<path d="M88.5313 62.4536C85.6347 62.4536 83.2988 64.7895 83.2988 67.6861C83.2988 70.5826 85.6347 72.9185 88.5313 72.9185H93.6236V62.5003H88.5313V62.4536Z" fill="#BEEAF2"/>
<path d="M88.5313 62.4536C85.6347 62.4536 83.2988 64.7895 83.2988 67.6861C83.2988 70.5826 85.6347 72.9185 88.5313 72.9185H93.6236V62.5003H88.5313V62.4536Z" stroke="#212552" stroke-width="2.8031" stroke-miterlimit="10" stroke-linecap="round" stroke-linejoin="round"/>
<path d="M93.6231 72.9185C96.5129 72.9185 98.8555 70.5759 98.8555 67.6861C98.8555 64.7963 96.5129 62.4536 93.6231 62.4536C90.7333 62.4536 88.3906 64.7963 88.3906 67.6861C88.3906 70.5759 90.7333 72.9185 93.6231 72.9185Z" fill="#7DCDDD"/>
<path d="M93.6231 72.9185C96.5129 72.9185 98.8555 70.5759 98.8555 67.6861C98.8555 64.7963 96.5129 62.4536 93.6231 62.4536C90.7333 62.4536 88.3906 64.7963 88.3906 67.6861C88.3906 70.5759 90.7333 72.9185 93.6231 72.9185Z" stroke="#212552" stroke-width="2.8031" stroke-miterlimit="10" stroke-linecap="round" stroke-linejoin="round"/>
<path d="M93.6231 72.9185C96.5129 72.9185 98.8555 70.5759 98.8555 67.6861C98.8555 64.7963 96.5129 62.4536 93.6231 62.4536C90.7333 62.4536 88.3906 64.7963 88.3906 67.6861C88.3906 70.5759 90.7333 72.9185 93.6231 72.9185Z" stroke="#212552" stroke-width="2.8031" stroke-miterlimit="10" stroke-linecap="round" stroke-linejoin="round"/>
<path opacity="0.23" d="M93.5295 141.641V128.28H83.1113V142.435H83.158C83.158 145.332 85.494 147.668 88.3905 147.668C91.2871 147.668 93.623 145.332 93.623 142.435C93.623 142.155 93.5762 141.875 93.5295 141.641Z" fill="#0A1E2B" stroke="#0A1E2B" stroke-width="2.8031" stroke-miterlimit="10" stroke-linecap="round" stroke-linejoin="round"/>
<path d="M88.5313 122.113C85.6347 122.113 83.2988 124.449 83.2988 127.345C83.2988 130.242 85.6347 132.578 88.5313 132.578H93.6236V122.159H88.5313V122.113Z" fill="#BEEAF2"/>
<path d="M88.5313 122.113C85.6347 122.113 83.2988 124.449 83.2988 127.345C83.2988 130.242 85.6347 132.578 88.5313 132.578H93.6236V122.159H88.5313V122.113Z" stroke="#212552" stroke-width="2.8031" stroke-miterlimit="10" stroke-linecap="round" stroke-linejoin="round"/>
<path d="M93.6231 132.531C96.5129 132.531 98.8555 130.189 98.8555 127.299C98.8555 124.409 96.5129 122.066 93.6231 122.066C90.7333 122.066 88.3906 124.409 88.3906 127.299C88.3906 130.189 90.7333 132.531 93.6231 132.531Z" fill="#7DCDDD"/>
<path d="M93.6231 132.531C96.5129 132.531 98.8555 130.189 98.8555 127.299C98.8555 124.409 96.5129 122.066 93.6231 122.066C90.7333 122.066 88.3906 124.409 88.3906 127.299C88.3906 130.189 90.7333 132.531 93.6231 132.531Z" stroke="#212552" stroke-width="2.8031" stroke-miterlimit="10" stroke-linecap="round" stroke-linejoin="round"/>
<path d="M62.4152 131.363C61.3874 131.363 60.5465 130.522 60.5465 129.495V63.1544C60.5465 62.1266 61.3874 61.2857 62.4152 61.2857H66.2461V57.0811H61.948C58.8646 57.0811 56.3418 59.6038 56.3418 62.6873V129.962C56.3418 133.045 58.8646 135.568 61.948 135.568H66.2461V131.363H62.4152Z" fill="#BEEAF2"/>
<path d="M66.854 138.091C68.0667 138.091 69.0497 135.874 69.0497 133.139C69.0497 130.404 68.0667 128.187 66.854 128.187C65.6413 128.187 64.6582 130.404 64.6582 133.139C64.6582 135.874 65.6413 138.091 66.854 138.091Z" fill="#212552"/>
<path d="M62.4152 131.363C61.3874 131.363 60.5464 130.522 60.5464 129.495V63.1544C60.5464 62.1266 61.3874 61.2857 62.4152 61.2857H66.2461V57.0811H61.948C58.8646 57.0811 56.3418 59.6038 56.3418 62.6873V129.962C56.3418 133.045 58.8646 135.568 61.948 135.568H66.2461V131.363H62.4152Z" stroke="#212552" stroke-width="2.8031" stroke-miterlimit="10" stroke-linecap="round" stroke-linejoin="round"/>
<path d="M146.042 176.774H24.5741C14.2493 176.774 5.88672 168.411 5.88672 158.086V36.6185C5.88672 26.2937 14.2493 17.9312 24.5741 17.9312H146.042C156.367 17.9312 164.729 26.2937 164.729 36.6185V158.086C164.729 168.411 156.367 176.774 146.042 176.774Z" stroke="#212552" stroke-width="2.8031" stroke-miterlimit="10" stroke-linecap="round" stroke-linejoin="round"/>
<path opacity="0.23" d="M66.3867 63.248L66.8539 146.22" stroke="#0A1E2B" stroke-width="3.73747" stroke-miterlimit="10" stroke-linecap="round" stroke-linejoin="round"/>
<path d="M65.9658 24.5651L73.2072 24.3315" stroke="#212552" stroke-width="2.8031" stroke-miterlimit="10" stroke-linecap="round" stroke-linejoin="round"/>
<path d="M66.6201 170.093L73.3008 170.28" stroke="#212552" stroke-width="2.8031" stroke-miterlimit="10" stroke-linecap="round" stroke-linejoin="round"/>
</g>
</svg>
