<svg width="282" height="350" viewBox="0 0 282 350" fill="none" xmlns="http://www.w3.org/2000/svg">
<circle cx="141.303" cy="135.101" r="50.4017" fill="white" stroke="black" stroke-width="4.20014"/>
<path d="M144.752 86.9797C120.029 89.1018 100.626 109.837 100.626 135.102C100.626 160.368 120.029 181.103 144.752 183.225C143.372 183.343 141.975 183.404 140.564 183.404C113.881 183.404 92.25 161.779 92.25 135.102C92.25 108.426 113.881 86.8008 140.564 86.8008C141.975 86.8008 143.372 86.8612 144.752 86.9797Z" fill="#EEEEEE"/>
<line x1="125.552" y1="113.052" x2="125.552" y2="146.653" stroke="black" stroke-width="8.40028" stroke-linecap="round"/>
<line x1="157.054" y1="113.052" x2="157.054" y2="146.653" stroke="black" stroke-width="8.40028" stroke-linecap="round"/>
<path d="M147.199 299.057C146.636 297.387 148.129 294.642 148.129 294.642L150.685 290.691C150.685 290.691 153.474 287.205 154.636 285.579C155.798 283.952 155.357 282.604 156.727 281.396C157.218 280.963 157.528 280.742 158.121 280.466C159.204 279.963 159.949 280.025 161.142 280.001C162.515 279.974 163.258 280.365 164.628 280.466C166.348 280.593 167.681 279.409 169.043 280.466C170.005 281.212 170.026 282.109 170.438 283.255C170.847 284.394 170.851 285.099 171.135 286.276C171.397 287.367 171.537 287.981 171.832 289.064C172.457 291.363 172.866 292.639 173.691 294.874C174.853 296.268 174.684 295.58 174.853 296.268C175.16 297.521 173.878 298.239 172.761 298.824C171.178 299.654 170.31 300.238 168.578 300.683C166.38 301.249 165.039 300.876 162.769 300.916C160.954 300.948 159.936 300.916 158.121 300.916C156.669 300.916 155.85 301.038 154.403 300.916C151.508 300.672 148.128 301.81 147.199 299.057Z" fill="#B00020"/>
<path d="M150.685 290.691L148.129 294.642C148.129 294.642 146.636 297.387 147.199 299.057C148.128 301.81 151.508 300.672 154.403 300.916C155.85 301.038 156.669 300.916 158.121 300.916C159.936 300.916 160.954 300.948 162.769 300.916C165.039 300.876 166.38 301.249 168.578 300.683C170.31 300.238 171.178 299.654 172.761 298.824C173.878 298.239 175.16 297.521 174.853 296.268C174.684 295.58 174.853 296.268 173.691 294.874M150.685 290.691C150.685 290.691 152.951 288.869 154.636 288.135C156.35 287.387 157.425 287.192 159.283 286.973C160.996 286.771 162.013 286.61 163.698 286.973C164.934 287.239 165.596 287.556 166.719 288.135C167.883 288.734 168.508 289.15 169.508 289.994C170.885 291.156 172.529 293.48 172.529 293.48C172.529 293.48 173.237 294.329 173.691 294.874M150.685 290.691C150.685 290.691 153.474 287.205 154.636 285.579C155.798 283.952 155.357 282.604 156.727 281.396C157.218 280.963 157.528 280.742 158.121 280.466C159.204 279.963 159.949 280.025 161.142 280.001C162.515 279.974 163.258 280.365 164.628 280.466C166.348 280.593 167.681 279.409 169.043 280.466C170.005 281.212 170.026 282.109 170.438 283.255C170.847 284.394 170.851 285.099 171.135 286.276C171.397 287.367 171.537 287.981 171.832 289.064C172.457 291.363 172.866 292.639 173.691 294.874" stroke="black" stroke-width="2.8"/>
<path d="M151.92 290.935C153.286 289.529 157.727 288.4 157.727 288.4C157.727 288.4 156.483 290.573 153.994 293.469C153.192 294.402 152.459 295.228 152.749 296.366C152.954 297.171 153.27 297.646 153.994 298.176C154.897 298.838 158.971 298.9 158.971 298.9H147.771L148.186 296.728C148.186 296.728 149.478 294.253 150.26 293.107C150.929 292.128 151.075 291.804 151.92 290.935Z" fill="black" fill-opacity="0.12"/>
<path d="M147.195 298.824H160.906L168.807 298.359L173.687 295.57L174.384 296.732L169.736 300.218H147.66L147.195 298.824Z" fill="black"/>
<path d="M134.174 299.057C134.737 297.387 133.244 294.642 133.244 294.642L130.688 290.691C130.688 290.691 127.9 287.205 126.738 285.579C125.576 283.952 126.016 282.604 124.646 281.396C124.155 280.963 123.845 280.742 123.252 280.466C122.169 279.963 121.424 280.025 120.231 280.001C118.858 279.974 118.115 280.365 116.745 280.466C115.025 280.593 113.692 279.409 112.33 280.466C111.368 281.212 111.347 282.109 110.935 283.255C110.526 284.394 110.522 285.099 110.238 286.276C109.976 287.367 109.836 287.981 109.541 289.064C108.916 291.363 108.507 292.639 107.682 294.874C106.52 296.268 106.689 295.58 106.52 296.268C106.213 297.521 107.495 298.239 108.612 298.824C110.195 299.654 111.063 300.238 112.795 300.683C114.993 301.249 116.334 300.876 118.604 300.916C120.419 300.948 121.437 300.916 123.252 300.916C124.704 300.916 125.523 301.038 126.97 300.916C129.865 300.672 133.245 301.81 134.174 299.057Z" fill="#B00020"/>
<path d="M130.688 290.691L133.244 294.642C133.244 294.642 134.737 297.387 134.174 299.057C133.245 301.81 129.865 300.672 126.97 300.916C125.523 301.038 124.704 300.916 123.252 300.916C121.437 300.916 120.419 300.948 118.604 300.916C116.334 300.876 114.993 301.249 112.795 300.683C111.063 300.238 110.195 299.654 108.612 298.824C107.495 298.239 106.213 297.521 106.52 296.268C106.689 295.58 106.52 296.268 107.682 294.874M130.688 290.691C130.688 290.691 128.422 288.869 126.738 288.135C125.023 287.387 123.948 287.192 122.09 286.973C120.377 286.771 119.36 286.61 117.675 286.973C116.439 287.239 115.777 287.556 114.654 288.135C113.49 288.734 112.865 289.15 111.865 289.994C110.488 291.156 108.844 293.48 108.844 293.48C108.844 293.48 108.136 294.329 107.682 294.874M130.688 290.691C130.688 290.691 127.9 287.205 126.738 285.579C125.576 283.952 126.016 282.604 124.646 281.396C124.155 280.963 123.845 280.742 123.252 280.466C122.169 279.963 121.424 280.025 120.231 280.001C118.858 279.974 118.115 280.365 116.745 280.466C115.025 280.593 113.692 279.409 112.33 280.466C111.368 281.212 111.347 282.109 110.935 283.255C110.526 284.394 110.522 285.099 110.238 286.276C109.976 287.367 109.836 287.981 109.541 289.064C108.916 291.363 108.507 292.639 107.682 294.874" stroke="black" stroke-width="2.8"/>
<path d="M129.451 290.935C128.085 289.529 123.644 288.4 123.644 288.4C123.644 288.4 124.888 290.573 127.377 293.469C128.179 294.402 128.912 295.228 128.622 296.366C128.417 297.171 128.101 297.646 127.377 298.176C126.474 298.838 122.4 298.9 122.4 298.9H133.6L133.185 296.728C133.185 296.728 131.893 294.253 131.111 293.107C130.442 292.128 130.296 291.804 129.451 290.935Z" fill="black" fill-opacity="0.12"/>
<path d="M134.174 298.824H120.463L112.562 298.359L107.682 295.57L106.985 296.732L111.633 300.218H133.709L134.174 298.824Z" fill="black"/>
<path d="M178.4 254.1C178.4 262.731 173.801 270.753 166.701 276.702C159.598 282.654 150.248 286.3 141.3 286.3C132.353 286.3 123.003 282.654 115.9 276.702C108.8 270.753 104.2 262.731 104.2 254.1C104.2 245.091 109.113 228.941 116.574 214.916C120.28 207.95 124.515 201.701 128.907 197.235C133.367 192.701 137.593 190.4 141.3 190.4C145.007 190.4 149.234 192.701 153.693 197.235C158.086 201.701 162.321 207.95 166.027 214.916C173.488 228.941 178.4 245.091 178.4 254.1Z" fill="#71B8CA" stroke="black" stroke-width="5.6"/>
<path d="M146.899 283.002C131.608 280.932 116.698 269.395 116.698 253.713C116.698 238.03 131.398 201.88 146.689 195.054C145.343 194.292 143.572 193.199 141.987 193.199C125.189 193.199 107.501 236.249 107.011 253.713C106.49 272.292 127.649 283.849 141.987 283.499C143.572 283.499 145.218 283.218 146.899 283.002Z" fill="#6AA8B7"/>
<path d="M64.6838 161.327C70.5618 161.742 85.7186 175.866 85.1204 181.76C84.5222 187.654 79.2723 192.096 73.3943 191.68C67.5164 191.265 54.4881 177.292 55.0863 171.398C55.6845 165.503 58.8059 160.912 64.6838 161.327Z" fill="#B00020"/>
<path d="M81.5901 188.79L97.9242 205.125M97.9006 205.1H121.001M64.6838 161.327C70.5618 161.742 85.7186 175.866 85.1204 181.76C84.5222 187.654 79.2723 192.096 73.3943 191.68C67.5164 191.265 54.4881 177.292 55.0863 171.398C55.6845 165.503 58.8059 160.912 64.6838 161.327Z" stroke="black" stroke-width="5.6" stroke-linecap="round"/>
<path d="M177.139 259.48C182.021 256.181 188.086 236.371 184.621 231.566C181.156 226.761 174.388 225.539 169.505 228.838C164.623 232.136 160.327 250.752 163.792 255.557C167.257 260.363 172.256 262.778 177.139 259.48Z" fill="#B00020"/>
<path d="M178.722 227.416L184.701 205.103M184.7 205.1H161.6M177.139 259.48C182.021 256.181 188.086 236.371 184.621 231.566C181.156 226.761 174.388 225.539 169.505 228.838C164.623 232.136 160.327 250.752 163.792 255.557C167.257 260.363 172.256 262.778 177.139 259.48Z" stroke="black" stroke-width="5.6" stroke-linecap="round"/>
</svg>
