<svg width="282" height="350" viewBox="0 0 282 350" fill="none" xmlns="http://www.w3.org/2000/svg">
<circle cx="141.302" cy="135.101" r="50.4017" fill="white" stroke="black" stroke-width="4.20014"/>
<path d="M144.751 86.9797C120.029 89.1018 108.751 109.837 108.751 135.102C108.751 160.368 120.029 181.103 144.751 183.225C143.371 183.343 141.974 183.404 140.563 183.404C113.88 183.404 92.2495 161.779 92.2495 135.102C92.2495 108.426 113.88 86.8008 140.563 86.8008C141.974 86.8008 143.371 86.8612 144.751 86.9797Z" fill="#EEEEEE"/>
<line x1="141.302" y1="102.55" x2="141.302" y2="136.151" stroke="black" stroke-width="8.40028" stroke-linecap="round"/>
<line x1="172.803" y1="102.55" x2="172.803" y2="136.151" stroke="black" stroke-width="8.40028" stroke-linecap="round"/>
<path d="M177.138 259.48C182.021 256.181 188.085 236.371 184.62 231.566C181.155 226.761 174.388 225.539 169.505 228.838C164.622 232.136 160.326 250.752 163.791 255.557C167.256 260.363 172.255 262.778 177.138 259.48Z" fill="#B00020"/>
<path d="M178.721 227.416L184.7 205.103M184.699 205.1H161.599M177.138 259.48C182.021 256.181 188.085 236.371 184.62 231.566C181.155 226.761 174.388 225.539 169.505 228.838C164.622 232.136 160.326 250.752 163.791 255.557C167.256 260.363 172.255 262.778 177.138 259.48Z" stroke="black" stroke-width="5.6" stroke-linecap="round"/>
<path d="M105.462 259.48C100.579 256.181 94.5148 236.371 97.9799 231.566C101.445 226.761 108.212 225.539 113.095 228.838C117.978 232.136 122.274 250.752 118.809 255.557C115.344 260.363 110.345 262.778 105.462 259.48Z" fill="#B00020"/>
<path d="M103.879 227.416L97.8999 205.103M97.9006 205.1H121.001M105.462 259.48C100.579 256.181 94.5148 236.371 97.9799 231.566C101.445 226.761 108.212 225.539 113.095 228.838C117.978 232.136 122.274 250.752 118.809 255.557C115.344 260.363 110.345 262.778 105.462 259.48Z" stroke="black" stroke-width="5.6" stroke-linecap="round"/>
<path d="M178.4 254.1C178.4 262.731 173.8 270.753 166.7 276.702C159.598 282.654 150.247 286.3 141.3 286.3C132.353 286.3 123.002 282.654 115.9 276.702C108.8 270.753 104.2 262.731 104.2 254.1C104.2 245.091 109.112 228.941 116.573 214.916C120.279 207.95 124.515 201.701 128.907 197.235C133.366 192.701 137.593 190.4 141.3 190.4C145.007 190.4 149.233 192.701 153.693 197.235C158.085 201.701 162.321 207.95 166.027 214.916C173.488 228.941 178.4 245.091 178.4 254.1Z" fill="#71B8CA" stroke="black" stroke-width="5.6"/>
<path d="M146.9 283.002C131.609 280.932 116.699 269.395 116.699 253.713C116.699 238.03 131.399 201.88 146.69 195.054C145.344 194.292 143.573 193.199 141.988 193.199C125.19 193.199 107.502 236.249 107.012 253.713C106.491 272.292 127.65 283.849 141.988 283.499C143.573 283.499 145.219 283.218 146.9 283.002Z" fill="#6AA8B7"/>
<path d="M134.173 299.057C134.736 297.387 133.243 294.642 133.243 294.642L130.687 290.691C130.687 290.691 127.899 287.205 126.737 285.579C125.575 283.952 126.015 282.604 124.645 281.396C124.154 280.963 123.844 280.742 123.251 280.466C122.168 279.963 121.423 280.025 120.23 280.001C118.857 279.974 118.114 280.365 116.744 280.466C115.025 280.593 113.691 279.409 112.329 280.466C111.367 281.212 111.346 282.109 110.935 283.255C110.525 284.394 110.521 285.099 110.237 286.276C109.975 287.367 109.835 287.981 109.54 289.064C108.915 291.363 108.506 292.639 107.681 294.874C106.519 296.268 106.688 295.58 106.519 296.268C106.213 297.521 107.494 298.239 108.611 298.824C110.194 299.654 111.062 300.238 112.794 300.683C114.993 301.249 116.333 300.876 118.603 300.916C120.418 300.948 121.436 300.916 123.251 300.916C124.703 300.916 125.522 301.038 126.969 300.916C129.864 300.672 133.244 301.81 134.173 299.057Z" fill="#B00020"/>
<path d="M130.687 290.691L133.243 294.642C133.243 294.642 134.736 297.387 134.173 299.057C133.244 301.81 129.864 300.672 126.969 300.916C125.522 301.038 124.703 300.916 123.251 300.916C121.436 300.916 120.418 300.948 118.603 300.916C116.333 300.876 114.993 301.249 112.794 300.683C111.062 300.238 110.194 299.654 108.611 298.824C107.494 298.239 106.213 297.521 106.519 296.268C106.688 295.58 106.519 296.268 107.681 294.874M130.687 290.691C130.687 290.691 128.421 288.869 126.737 288.135C125.022 287.387 123.947 287.192 122.089 286.973C120.377 286.771 119.359 286.61 117.674 286.973C116.438 287.239 115.776 287.556 114.653 288.135C113.489 288.734 112.864 289.15 111.864 289.994C110.487 291.156 108.843 293.48 108.843 293.48C108.843 293.48 108.135 294.329 107.681 294.874M130.687 290.691C130.687 290.691 127.899 287.205 126.737 285.579C125.575 283.952 126.015 282.604 124.645 281.396C124.154 280.963 123.844 280.742 123.251 280.466C122.168 279.963 121.423 280.025 120.23 280.001C118.857 279.974 118.114 280.365 116.744 280.466C115.025 280.593 113.691 279.409 112.329 280.466C111.367 281.212 111.346 282.109 110.935 283.255C110.525 284.394 110.521 285.099 110.237 286.276C109.975 287.367 109.835 287.981 109.54 289.064C108.915 291.363 108.506 292.639 107.681 294.874" stroke="black" stroke-width="2.8"/>
<path d="M129.452 290.935C128.086 289.529 123.645 288.4 123.645 288.4C123.645 288.4 124.889 290.573 127.378 293.469C128.179 294.402 128.912 295.228 128.622 296.366C128.417 297.171 128.102 297.646 127.378 298.176C126.474 298.838 122.4 298.9 122.4 298.9H133.6L133.185 296.728C133.185 296.728 131.893 294.253 131.111 293.107C130.443 292.128 130.297 291.804 129.452 290.935Z" fill="black" fill-opacity="0.12"/>
<path d="M134.174 298.824H120.464L112.563 298.359L107.683 295.57L106.985 296.732L111.633 300.218H133.71L134.174 298.824Z" fill="black"/>
<path d="M147.199 299.057C146.636 297.387 148.129 294.642 148.129 294.642L150.685 290.691C150.685 290.691 153.474 287.205 154.636 285.579C155.798 283.952 155.357 282.604 156.727 281.396C157.218 280.963 157.528 280.742 158.121 280.466C159.204 279.963 159.949 280.025 161.142 280.001C162.515 279.974 163.258 280.365 164.628 280.466C166.348 280.593 167.681 279.409 169.043 280.466C170.005 281.212 170.026 282.109 170.438 283.255C170.847 284.394 170.851 285.099 171.135 286.276C171.397 287.367 171.537 287.981 171.832 289.064C172.457 291.363 172.866 292.639 173.691 294.874C174.853 296.268 174.684 295.58 174.853 296.268C175.16 297.521 173.878 298.239 172.761 298.824C171.178 299.654 170.31 300.238 168.578 300.683C166.38 301.249 165.039 300.876 162.769 300.916C160.954 300.948 159.936 300.916 158.121 300.916C156.669 300.916 155.85 301.038 154.403 300.916C151.508 300.672 148.128 301.81 147.199 299.057Z" fill="#B00020"/>
<path d="M150.685 290.691L148.129 294.642C148.129 294.642 146.636 297.387 147.199 299.057C148.128 301.81 151.508 300.672 154.403 300.916C155.85 301.038 156.669 300.916 158.121 300.916C159.936 300.916 160.954 300.948 162.769 300.916C165.039 300.876 166.38 301.249 168.578 300.683C170.31 300.238 171.178 299.654 172.761 298.824C173.878 298.239 175.16 297.521 174.853 296.268C174.684 295.58 174.853 296.268 173.691 294.874M150.685 290.691C150.685 290.691 152.951 288.869 154.636 288.135C156.35 287.387 157.425 287.192 159.283 286.973C160.996 286.771 162.013 286.61 163.698 286.973C164.934 287.239 165.596 287.556 166.719 288.135C167.883 288.734 168.508 289.15 169.508 289.994C170.885 291.156 172.529 293.48 172.529 293.48C172.529 293.48 173.237 294.329 173.691 294.874M150.685 290.691C150.685 290.691 153.474 287.205 154.636 285.579C155.798 283.952 155.357 282.604 156.727 281.396C157.218 280.963 157.528 280.742 158.121 280.466C159.204 279.963 159.949 280.025 161.142 280.001C162.515 279.974 163.258 280.365 164.628 280.466C166.348 280.593 167.681 279.409 169.043 280.466C170.005 281.212 170.026 282.109 170.438 283.255C170.847 284.394 170.851 285.099 171.135 286.276C171.397 287.367 171.537 287.981 171.832 289.064C172.457 291.363 172.866 292.639 173.691 294.874" stroke="black" stroke-width="2.8"/>
<path d="M151.921 290.935C153.287 289.529 157.728 288.4 157.728 288.4C157.728 288.4 156.484 290.573 153.995 293.469C153.193 294.402 152.46 295.228 152.75 296.366C152.955 297.171 153.271 297.646 153.995 298.176C154.898 298.838 158.972 298.9 158.972 298.9H147.772L148.187 296.728C148.187 296.728 149.479 294.253 150.261 293.107C150.93 292.128 151.076 291.804 151.921 290.935Z" fill="black" fill-opacity="0.12"/>
<path d="M147.195 298.824H160.906L168.807 298.359L173.687 295.57L174.384 296.732L169.736 300.218H147.66L147.195 298.824Z" fill="black"/>
</svg>
