<svg width="282" height="350" viewBox="0 0 282 350" fill="none" xmlns="http://www.w3.org/2000/svg">
<circle cx="141.302" cy="135.101" r="50.4017" fill="white" stroke="black" stroke-width="4.20014"/>
<path d="M144.752 86.9797C120.029 89.1018 100.626 109.837 100.626 135.102C100.626 160.368 120.029 181.103 144.752 183.225C143.372 183.343 141.975 183.404 140.564 183.404C113.881 183.404 92.25 161.779 92.25 135.102C92.25 108.426 113.881 86.8008 140.564 86.8008C141.975 86.8008 143.372 86.8612 144.752 86.9797Z" fill="#EEEEEE"/>
<line x1="125.552" y1="113.052" x2="125.552" y2="146.653" stroke="black" stroke-width="8.40028" stroke-linecap="round"/>
<line x1="157.053" y1="113.052" x2="157.053" y2="146.653" stroke="black" stroke-width="8.40028" stroke-linecap="round"/>
<path d="M177.138 259.48C182.02 256.181 188.085 236.371 184.62 231.566C181.155 226.761 174.387 225.539 169.504 228.838C164.622 232.136 160.326 250.752 163.791 255.557C167.256 260.363 172.255 262.778 177.138 259.48Z" fill="#B00020"/>
<path d="M178.721 227.416L184.7 205.103M184.699 205.1H161.599M177.138 259.48C182.02 256.181 188.085 236.371 184.62 231.566C181.155 226.761 174.387 225.539 169.504 228.838C164.622 232.136 160.326 250.752 163.791 255.557C167.256 260.363 172.255 262.778 177.138 259.48Z" stroke="black" stroke-width="5.6" stroke-linecap="round"/>
<path d="M105.462 259.48C100.579 256.181 94.5148 236.371 97.9799 231.566C101.445 226.761 108.212 225.539 113.095 228.838C117.978 232.136 122.274 250.752 118.809 255.557C115.344 260.363 110.345 262.778 105.462 259.48Z" fill="#B00020"/>
<path d="M103.879 227.416L97.8999 205.103M97.9006 205.1H121.001M105.462 259.48C100.579 256.181 94.5148 236.371 97.9799 231.566C101.445 226.761 108.212 225.539 113.095 228.838C117.978 232.136 122.274 250.752 118.809 255.557C115.344 260.363 110.345 262.778 105.462 259.48Z" stroke="black" stroke-width="5.6" stroke-linecap="round"/>
<path d="M178.4 254.1C178.4 262.731 173.801 270.753 166.701 276.702C159.598 282.654 150.248 286.3 141.3 286.3C132.353 286.3 123.003 282.654 115.9 276.702C108.8 270.753 104.2 262.731 104.2 254.1C104.2 245.091 109.113 228.941 116.574 214.916C120.28 207.95 124.515 201.701 128.907 197.235C133.367 192.701 137.593 190.4 141.3 190.4C145.007 190.4 149.234 192.701 153.693 197.235C158.086 201.701 162.321 207.95 166.027 214.916C173.488 228.941 178.4 245.091 178.4 254.1Z" fill="#71B8CA" stroke="black" stroke-width="5.6"/>
<path d="M146.9 283.002C131.609 280.932 116.699 269.395 116.699 253.713C116.699 238.03 131.399 201.88 146.69 195.054C145.344 194.292 143.573 193.199 141.988 193.199C125.19 193.199 107.502 236.249 107.012 253.713C106.491 272.292 127.65 283.849 141.988 283.499C143.573 283.499 145.219 283.218 146.9 283.002Z" fill="#6AA8B7"/>
<path d="M134.173 299.057C134.736 297.387 133.243 294.642 133.243 294.642L130.687 290.691C130.687 290.691 127.899 287.205 126.737 285.579C125.575 283.952 126.015 282.604 124.645 281.396C124.154 280.963 123.844 280.742 123.251 280.466C122.168 279.963 121.423 280.025 120.23 280.001C118.857 279.974 118.114 280.365 116.744 280.466C115.025 280.593 113.691 279.409 112.329 280.466C111.367 281.212 111.346 282.109 110.935 283.255C110.525 284.394 110.521 285.099 110.237 286.276C109.975 287.367 109.835 287.981 109.54 289.064C108.915 291.363 108.506 292.639 107.681 294.874C106.519 296.268 106.688 295.58 106.519 296.268C106.213 297.521 107.494 298.239 108.611 298.824C110.194 299.654 111.062 300.238 112.794 300.683C114.993 301.249 116.333 300.876 118.603 300.916C120.418 300.948 121.436 300.916 123.251 300.916C124.703 300.916 125.522 301.038 126.969 300.916C129.864 300.672 133.244 301.81 134.173 299.057Z" fill="#B00020"/>
<path d="M130.687 290.691L133.243 294.642C133.243 294.642 134.736 297.387 134.173 299.057C133.244 301.81 129.864 300.672 126.969 300.916C125.522 301.038 124.703 300.916 123.251 300.916C121.436 300.916 120.418 300.948 118.603 300.916C116.333 300.876 114.993 301.249 112.794 300.683C111.062 300.238 110.194 299.654 108.611 298.824C107.494 298.239 106.213 297.521 106.519 296.268C106.688 295.58 106.519 296.268 107.681 294.874M130.687 290.691C130.687 290.691 128.421 288.869 126.737 288.135C125.022 287.387 123.947 287.192 122.089 286.973C120.377 286.771 119.359 286.61 117.674 286.973C116.438 287.239 115.776 287.556 114.653 288.135C113.489 288.734 112.864 289.15 111.864 289.994C110.487 291.156 108.843 293.48 108.843 293.48C108.843 293.48 108.135 294.329 107.681 294.874M130.687 290.691C130.687 290.691 127.899 287.205 126.737 285.579C125.575 283.952 126.015 282.604 124.645 281.396C124.154 280.963 123.844 280.742 123.251 280.466C122.168 279.963 121.423 280.025 120.23 280.001C118.857 279.974 118.114 280.365 116.744 280.466C115.025 280.593 113.691 279.409 112.329 280.466C111.367 281.212 111.346 282.109 110.935 283.255C110.525 284.394 110.521 285.099 110.237 286.276C109.975 287.367 109.835 287.981 109.54 289.064C108.915 291.363 108.506 292.639 107.681 294.874" stroke="black" stroke-width="2.8"/>
<path d="M129.451 290.935C128.085 289.529 123.644 288.4 123.644 288.4C123.644 288.4 124.888 290.573 127.377 293.469C128.179 294.402 128.912 295.228 128.622 296.366C128.417 297.171 128.101 297.646 127.377 298.176C126.474 298.838 122.4 298.9 122.4 298.9H133.6L133.185 296.728C133.185 296.728 131.893 294.253 131.111 293.107C130.442 292.128 130.296 291.804 129.451 290.935Z" fill="black" fill-opacity="0.12"/>
<path d="M134.174 298.824H120.463L112.562 298.359L107.682 295.57L106.985 296.732L111.633 300.218H133.709L134.174 298.824Z" fill="black"/>
<path d="M184.681 281.409C186.998 282.878 188.169 284.199 189.075 286.63C189.701 288.306 189.592 291.138 189.592 291.138C189.592 291.138 183.854 292.971 180.027 293.511C177.525 293.864 176.095 294.058 173.564 293.986C171.736 293.934 170.729 293.689 168.911 293.511C164.675 293.098 162.281 293.029 158.053 292.562C155.118 292.238 151.174 292.087 150.556 291.613C149.937 291.139 148.921 288.651 149.004 286.63C149.064 285.193 149.521 283.782 150.039 283.07C150.556 282.358 153.733 282.358 156.243 282.595C158.753 282.833 161.633 283.023 165.033 282.595C166.563 282.403 168.092 282.121 168.911 281.884C169.73 281.646 172.433 279.748 173.564 279.51C174.695 279.273 176.902 279.192 178.993 279.51C181.327 279.866 182.74 280.179 184.681 281.409Z" fill="#B00020"/>
<path d="M189.592 289.24C186.836 289.771 185.225 290.373 182.536 291.138C181.316 291.485 180.751 291.572 179.51 291.85C177.149 292.38 175.737 292.304 173.306 292.325C170.572 292.348 169.048 292.073 166.325 291.85C164.304 291.685 163.172 291.579 161.155 291.376C157.918 291.05 156.093 290.919 152.882 290.426C151.769 290.256 150.692 290.07 149.582 289.884M189.075 286.63C188.169 284.199 186.998 282.878 184.681 281.409C182.74 280.179 181.327 279.866 178.993 279.51C176.902 279.192 174.695 279.273 173.564 279.51C172.433 279.748 169.73 281.646 168.911 281.884C168.092 282.121 166.563 282.403 165.033 282.595C161.633 283.023 158.753 282.833 156.243 282.595C153.733 282.358 150.556 282.358 150.039 283.07C149.521 283.782 149.064 285.193 149.004 286.63C148.921 288.651 149.937 291.139 150.556 291.613C151.174 292.087 155.118 292.238 158.053 292.562C162.281 293.029 164.675 293.098 168.911 293.511C170.729 293.689 171.736 293.934 173.564 293.986C176.095 294.058 177.525 293.864 180.027 293.511C183.854 292.971 189.592 291.138 189.592 291.138C189.592 291.138 189.701 288.306 189.075 286.63Z" stroke="black" stroke-width="2.8"/>
<path d="M189.592 289.35L187.249 289.818L184.671 290.756L179.282 292.161H174.361L169.441 291.927L160.771 290.99L153.976 290.053L154.679 291.458L157.022 291.927L159.599 292.161L164.52 292.63L174.361 293.567H177.642L183.031 292.864L189.592 290.756V289.35Z" fill="black"/>
</svg>
