<svg width="39" height="32" viewBox="0 0 39 32" fill="none" xmlns="http://www.w3.org/2000/svg">
<path d="M0 29.4397C0 30.8541 1.13064 31.9997 2.52369 31.9997H2.55996C1.14558 31.9997 0 30.8541 0 29.4397Z" fill="#FBBC05"/>
<path d="M21.6872 9.59986V16.2835L30.5042 9.01534V2.55996C30.5042 1.14558 29.3735 0 27.9805 0H8.87889L8.86182 9.59986H21.6872Z" fill="#FBBC05"/>
<path d="M21.6874 22.9693H8.84062L8.82568 31.9996H27.9806C29.3758 31.9996 30.5043 30.854 30.5043 29.4396V23.6114L21.6874 16.2856V22.9693Z" fill="#34A853"/>
<path d="M8.87881 0L0 9.59986H8.86387L8.87881 0Z" fill="#EA4335"/>
<path d="M0 22.9697V29.44C0 30.8544 1.14558 32 2.55996 32H8.82547L8.84041 22.9697H0Z" fill="#1967D2"/>
<path d="M8.86387 9.6001H0V22.9695H8.84041L8.86387 9.6001Z" fill="#4285F4"/>
<path d="M38.2566 27.1634V5.19037C37.7596 2.27415 34.63 5.61703 34.63 5.61703L30.5063 9.01539V23.6093L36.4092 28.5138C38.5404 28.7996 38.2566 27.1634 38.2566 27.1634Z" fill="#34A853"/>
<path d="M21.6875 16.2834L30.5066 23.6113V9.01733L21.6875 16.2834Z" fill="#188038"/>
</svg>
