<svg width="20" height="16" viewBox="0 0 20 16" xmlns="http://www.w3.org/2000/svg" fill="currentColor">
<path fill="currentColor" d="M7.57858 15.6901C6.09896 15.6901 4.79075 15.3615 3.65396 14.7042C2.51718 14.0282 1.62399 13.0986 0.974396 11.9155C0.324804 10.7324 7.62939e-06 9.38028 7.62939e-06 7.85916C7.62939e-06 6.31925 0.30676 4.96714 0.920263 3.80282C1.53377 2.61972 2.37282 1.69014 3.43743 1.01408C4.52009 0.338028 5.76514 0 7.17259 0C8.56199 0 9.76193 0.328639 10.7724 0.985916C11.7829 1.62441 12.5588 2.51643 13.1001 3.66197C13.6595 4.80751 13.9392 6.11268 13.9392 7.57747C13.9392 7.89671 13.8399 8.15963 13.6414 8.3662C13.443 8.55399 13.1903 8.64789 12.8836 8.64789H1.56986V6.70423H12.9919L11.8551 7.5493C11.8551 6.51643 11.6656 5.58685 11.2867 4.76056C10.9077 3.93427 10.3664 3.28639 9.66269 2.8169C8.97701 2.34742 8.14698 2.11268 7.17259 2.11268C6.14407 2.11268 5.25088 2.3662 4.49302 2.87324C3.73516 3.3615 3.14873 4.03756 2.73371 4.90141C2.31869 5.76526 2.11118 6.75117 2.11118 7.85916C2.11118 8.96714 2.34576 9.95305 2.81491 10.8169C3.28406 11.662 3.92463 12.338 4.73662 12.8451C5.56665 13.3333 6.51397 13.5775 7.57858 13.5775C8.19209 13.5775 8.81461 13.4648 9.44616 13.2394C10.0958 13.0141 10.61 12.7324 10.9889 12.3944C11.2055 12.2066 11.4491 12.1127 11.7197 12.1127C12.0084 12.0939 12.252 12.169 12.4505 12.338C12.7031 12.5822 12.8295 12.8545 12.8295 13.1549C12.8475 13.4366 12.7392 13.6808 12.5047 13.8873C11.8912 14.4131 11.1243 14.8451 10.204 15.1831C9.30181 15.5211 8.42666 15.6901 7.57858 15.6901Z" />
<path fill="currentColor"  d="M18.349 16C17.8798 16 17.4828 15.831 17.158 15.493C16.8332 15.1549 16.6708 14.7418 16.6708 14.2535C16.6708 13.7653 16.8332 13.3521 17.158 13.0141C17.5009 12.6761 17.8979 12.507 18.349 12.507C18.8001 12.507 19.188 12.6854 19.5128 13.0423C19.8376 13.3803 20 13.784 20 14.2535C20 14.723 19.8376 15.1362 19.5128 15.493C19.2061 15.831 18.8181 16 18.349 16Z" />
</svg>
