<svg width="110" height="110" viewBox="0 0 110 110" fill="none" xmlns="http://www.w3.org/2000/svg">
<circle cx="55" cy="55" r="55" fill="#71B8CA"/>
<path d="M27.253 66.165C25.449 66.165 23.854 65.78 22.468 65.01C21.082 64.218 19.993 63.129 19.201 61.743C18.409 60.357 18.013 58.773 18.013 56.991C18.013 55.187 18.387 53.603 19.135 52.239C19.883 50.853 20.906 49.764 22.204 48.972C23.524 48.18 25.042 47.784 26.758 47.784C28.452 47.784 29.915 48.169 31.147 48.939C32.379 49.687 33.325 50.732 33.985 52.074C34.667 53.416 35.008 54.945 35.008 56.661C35.008 57.035 34.887 57.343 34.645 57.585C34.403 57.805 34.095 57.915 33.721 57.915H19.927V55.638H33.853L32.467 56.628C32.467 55.418 32.236 54.329 31.774 53.361C31.312 52.393 30.652 51.634 29.794 51.084C28.958 50.534 27.946 50.259 26.758 50.259C25.504 50.259 24.415 50.556 23.491 51.15C22.567 51.722 21.852 52.514 21.346 53.526C20.84 54.538 20.587 55.693 20.587 56.991C20.587 58.289 20.873 59.444 21.445 60.456C22.017 61.446 22.798 62.238 23.788 62.832C24.8 63.404 25.955 63.69 27.253 63.69C28.001 63.69 28.76 63.558 29.53 63.294C30.322 63.03 30.949 62.7 31.411 62.304C31.675 62.084 31.972 61.974 32.302 61.974C32.654 61.952 32.951 62.04 33.193 62.238C33.501 62.524 33.655 62.843 33.655 63.195C33.677 63.525 33.545 63.811 33.259 64.053C32.511 64.669 31.576 65.175 30.454 65.571C29.354 65.967 28.287 66.165 27.253 66.165ZM45.957 66.165C44.571 66.165 43.229 65.945 41.931 65.505C40.655 65.043 39.632 64.394 38.862 63.558C38.598 63.272 38.488 62.942 38.532 62.568C38.576 62.194 38.752 61.875 39.06 61.611C39.412 61.347 39.764 61.248 40.116 61.314C40.49 61.358 40.809 61.512 41.073 61.776C41.535 62.326 42.195 62.777 43.053 63.129C43.911 63.459 44.857 63.624 45.891 63.624C47.409 63.624 48.52 63.371 49.224 62.865C49.928 62.337 50.291 61.699 50.313 60.951C50.335 60.203 49.983 59.576 49.257 59.07C48.553 58.564 47.343 58.168 45.627 57.882C43.405 57.508 41.777 56.881 40.743 56.001C39.731 55.121 39.225 54.065 39.225 52.833C39.225 51.711 39.533 50.776 40.149 50.028C40.765 49.28 41.568 48.719 42.558 48.345C43.57 47.971 44.659 47.784 45.825 47.784C47.299 47.784 48.575 48.037 49.653 48.543C50.731 49.027 51.6 49.687 52.26 50.523C52.524 50.831 52.634 51.161 52.59 51.513C52.546 51.843 52.37 52.118 52.062 52.338C51.754 52.514 51.402 52.569 51.006 52.503C50.632 52.437 50.313 52.261 50.049 51.975C49.499 51.381 48.872 50.952 48.168 50.688C47.464 50.424 46.661 50.292 45.759 50.292C44.637 50.292 43.713 50.512 42.987 50.952C42.283 51.392 41.931 51.964 41.931 52.668C41.931 53.152 42.052 53.57 42.294 53.922C42.558 54.274 43.02 54.593 43.68 54.879C44.34 55.143 45.264 55.385 46.452 55.605C48.102 55.891 49.4 56.287 50.346 56.793C51.314 57.299 52.007 57.904 52.425 58.608C52.843 59.29 53.052 60.049 53.052 60.885C53.052 61.897 52.755 62.799 52.161 63.591C51.589 64.383 50.764 65.01 49.686 65.472C48.63 65.934 47.387 66.165 45.957 66.165ZM61.6523 66C60.7503 66 59.9363 65.758 59.2103 65.274C58.5063 64.768 57.9563 64.075 57.5603 63.195C57.1643 62.315 56.9663 61.303 56.9663 60.159V41.613C56.9663 41.195 57.0873 40.865 57.3293 40.623C57.5933 40.359 57.9343 40.227 58.3523 40.227C58.7703 40.227 59.1003 40.359 59.3423 40.623C59.6063 40.865 59.7383 41.195 59.7383 41.613V60.159C59.7383 61.061 59.9143 61.798 60.2663 62.37C60.6403 62.942 61.1023 63.228 61.6523 63.228H62.4773C62.8513 63.228 63.1483 63.36 63.3682 63.624C63.5883 63.866 63.6983 64.196 63.6983 64.614C63.6983 65.032 63.5333 65.373 63.2033 65.637C62.8953 65.879 62.4773 66 61.9493 66H61.6523ZM74.6011 66.165C72.8191 66.165 71.2351 65.769 69.8491 64.977C68.4851 64.185 67.4071 63.096 66.6151 61.71C65.8231 60.324 65.4271 58.751 65.4271 56.991C65.4271 55.209 65.8231 53.625 66.6151 52.239C67.4071 50.853 68.4851 49.764 69.8491 48.972C71.2351 48.18 72.8191 47.784 74.6011 47.784C76.3611 47.784 77.9231 48.18 79.2871 48.972C80.6511 49.764 81.7291 50.853 82.5211 52.239C83.3131 53.625 83.7201 55.209 83.7421 56.991C83.7421 58.751 83.3461 60.324 82.5541 61.71C81.7621 63.096 80.6731 64.185 79.2871 64.977C77.9231 65.769 76.3611 66.165 74.6011 66.165ZM74.6011 63.624C75.8331 63.624 76.9331 63.338 77.9011 62.766C78.8691 62.194 79.6171 61.413 80.1451 60.423C80.6951 59.411 80.9701 58.267 80.9701 56.991C80.9701 55.715 80.6951 54.571 80.1451 53.559C79.6171 52.547 78.8691 51.755 77.9011 51.183C76.9331 50.611 75.8331 50.325 74.6011 50.325C73.3691 50.325 72.2691 50.611 71.3011 51.183C70.3331 51.755 69.5631 52.547 68.9911 53.559C68.4411 54.571 68.1661 55.715 68.1661 56.991C68.1661 58.267 68.4411 59.411 68.9911 60.423C69.5631 61.413 70.3331 62.194 71.3011 62.766C72.2691 63.338 73.3691 63.624 74.6011 63.624ZM89.6608 66.528C89.0888 66.528 88.6048 66.33 88.2088 65.934C87.8128 65.538 87.6148 65.054 87.6148 64.482C87.6148 63.91 87.8128 63.426 88.2088 63.03C88.6268 62.634 89.1108 62.436 89.6608 62.436C90.2108 62.436 90.6838 62.645 91.0798 63.063C91.4758 63.459 91.6738 63.932 91.6738 64.482C91.6738 65.032 91.4758 65.516 91.0798 65.934C90.7058 66.33 90.2328 66.528 89.6608 66.528Z" fill="white"/>
</svg>
